<?xml version="1.0" encoding="utf-8"?>
<!-- Generator: Adobe Illustrator 19.1.0, SVG Export Plug-In . SVG Version: 6.00 Build 0)  -->
<svg version="1.1" xmlns="http://www.w3.org/2000/svg" xmlns:xlink="http://www.w3.org/1999/xlink" x="0px" y="0px"
	 viewBox="0 0 576 576" xml:space="preserve">
<style type="text/css">
	.st2{fill:#77777A;}
	.st3{fill:#CF0A2C;}
	.st4{fill:#00B550;}
</style>
<g id="Pepper_Logo_Square_480x480">
	<g>
		<g>
			<path class="st2" d="M107,361.2V378l-6.8,1.8v-56.2h6.8v1.9c2.1-1,4.2-1.8,6.2-2.4c2-0.5,3.9-0.8,5.7-0.8
				c5.8,0,10.4,1.8,13.8,5.5c3.5,3.7,5.2,8.6,5.2,14.6c0,6.2-1.8,11.2-5.5,15c-3.7,3.8-8.6,5.7-14.8,5.7c-1.6,0-3.2-0.2-4.9-0.5
				C111,362.3,109.1,361.8,107,361.2z M107,355.2c1.8,0.8,3.5,1.5,5.1,1.9c1.6,0.4,3.2,0.7,4.7,0.7c4.2,0,7.6-1.4,10.2-4.3
				c2.6-2.8,3.9-6.6,3.9-11.3c0-4.6-1.2-8.2-3.5-10.8c-2.3-2.6-5.4-4-9.3-4c-1.5,0-3.2,0.3-4.9,0.8c-1.7,0.5-3.8,1.4-6.3,2.7V355.2z
				"/>
			<path class="st2" d="M177.2,350.9l-0.4,6.8c-2.3,1.8-4.8,3.1-7.4,4c-2.6,0.9-5.3,1.4-8.1,1.4c-5.7,0-10.5-1.8-14.1-5.5
				c-3.7-3.6-5.5-8.3-5.5-14c0-6.4,2-11.6,5.9-15.7c3.9-4.1,8.8-6.2,14.8-6.2c5.3,0,9.5,1.6,12.6,4.8c3.1,3.2,4.6,7.5,4.6,13.1
				c0,0.2,0,0.4,0,0.8c0,0.3,0,0.6,0,0.9l-0.8,1.7l-30.3,1c0.4,4.4,1.7,7.7,4,10.1c2.3,2.3,5.4,3.5,9.3,3.5c2.5,0,5-0.6,7.5-1.6
				C171.7,354.8,174.4,353.1,177.2,350.9z M173.2,338.2c-0.1-3.5-1.2-6.2-3.2-8.3c-2-2.1-4.7-3.1-7.9-3.1c-3.3,0-6.3,1.1-8.7,3.4
				c-2.5,2.3-4,5.3-4.5,9L173.2,338.2z"/>
			<path class="st2" d="M190.9,361.2V378l-6.8,1.8v-56.2h6.8v1.9c2.1-1,4.2-1.8,6.2-2.4c2-0.5,3.9-0.8,5.7-0.8
				c5.8,0,10.4,1.8,13.9,5.5c3.4,3.7,5.2,8.6,5.2,14.6c0,6.2-1.9,11.2-5.6,15c-3.7,3.8-8.6,5.7-14.8,5.7c-1.6,0-3.2-0.2-4.9-0.5
				C194.8,362.3,192.9,361.8,190.9,361.2z M190.9,355.2c1.8,0.8,3.5,1.5,5.1,1.9c1.6,0.4,3.2,0.7,4.7,0.7c4.2,0,7.7-1.4,10.3-4.3
				c2.6-2.8,3.9-6.6,3.9-11.3c0-4.6-1.1-8.2-3.4-10.8c-2.3-2.6-5.4-4-9.3-4c-1.5,0-3.2,0.3-4.9,0.8c-1.7,0.5-3.8,1.4-6.3,2.7V355.2z
				"/>
			<path class="st2" d="M234,361.2V378l-6.8,1.8v-56.2h6.8v1.9c2.1-1,4.2-1.8,6.2-2.4c2-0.5,3.9-0.8,5.7-0.8
				c5.8,0,10.4,1.8,13.8,5.5c3.4,3.7,5.2,8.6,5.2,14.6c0,6.2-1.8,11.2-5.6,15c-3.7,3.8-8.6,5.7-14.8,5.7c-1.6,0-3.2-0.2-4.9-0.5
				C237.9,362.3,236,361.8,234,361.2z M234,355.2c1.8,0.8,3.5,1.5,5.1,1.9c1.6,0.4,3.2,0.7,4.7,0.7c4.2,0,7.6-1.4,10.2-4.3
				c2.6-2.8,3.9-6.6,3.9-11.3c0-4.6-1.1-8.2-3.4-10.8c-2.3-2.6-5.4-4-9.3-4c-1.5,0-3.2,0.3-4.9,0.8c-1.7,0.5-3.8,1.4-6.3,2.7V355.2z
				"/>
			<path class="st2" d="M304.3,350.9l-0.4,6.8c-2.3,1.8-4.8,3.1-7.4,4c-2.6,0.9-5.3,1.4-8.1,1.4c-5.8,0-10.5-1.8-14.1-5.5
				c-3.7-3.6-5.5-8.3-5.5-14c0-6.4,2-11.6,5.9-15.7c3.9-4.1,8.8-6.2,14.8-6.2c5.3,0,9.5,1.6,12.6,4.8c3.1,3.2,4.6,7.5,4.6,13.1
				c0,0.2,0,0.4,0,0.8c0,0.3,0,0.6,0,0.9l-0.8,1.7l-30.3,1c0.4,4.4,1.7,7.7,4,10.1c2.3,2.3,5.4,3.5,9.3,3.5c2.5,0,5-0.6,7.5-1.6
				C298.8,354.8,301.5,353.1,304.3,350.9z M300.3,338.2c-0.1-3.5-1.2-6.2-3.2-8.3c-2-2.1-4.7-3.1-7.9-3.1c-3.3,0-6.3,1.1-8.7,3.4
				c-2.5,2.3-4,5.3-4.5,9L300.3,338.2z"/>
			<path class="st2" d="M318.7,361.4h-7v-37.9h6.8v5.8c2.3-2.3,4.8-4.1,7.3-5.3c2.5-1.1,5.2-1.7,8.1-1.7v6.8
				c-5.6,0.4-9.5,1.7-11.8,3.7c-2.3,2.1-3.4,5.5-3.4,10.2V361.4z"/>
		</g>
		<g>
			<g>
				<path class="st3" d="M363.3,324.5l-0.4-0.2c-2.4-1.2-5.1-1.8-8.1-1.8c-5.4,0-9.9,2-13.4,5.8c-3.6,3.9-5.4,8.9-5.4,15.1
					c0,6.1,1.6,11,4.7,14.4c3.1,3.4,7.4,5.2,12.8,5.2c1.9,0,3.8-0.3,5.6-0.9c1.8-0.6,3-1.3,3.8-2.1l0.5-0.5v2.8h8.7v-55.8l-8.7,2.1
					V324.5z M363.3,353.1L363.3,353.1c-0.5,0.7-1.3,1.2-2.7,1.8c-1.3,0.5-2.4,0.8-3.4,0.8c-8.1,0-12.1-4.2-12.1-12.6
					c0-4.3,1-7.6,3.1-9.9c2-2.3,5-3.5,8.7-3.5c2.2,0,4.3,0.8,6.3,2.4l0.1,0.1V353.1z"/>
				<g>
					<path class="st3" d="M412.6,360.4c-2.1-1.5-3.1-4.8-3.1-10v-8.4c0-7.5-1.4-12.7-4.1-15.4c-2.7-2.7-7.1-4-13.1-4
						c-4.2,0-7.9,0.7-11,2.2l1.8,6.6c2.3-1.1,5.2-1.6,8.5-1.6c6,0,9.1,2.4,9.1,7.2v0.3l-0.3-0.1c-1.5-0.4-2.7-0.5-3.8-0.5
						c-6.2,0-11.1,1.3-14.5,3.8c-3.3,2.5-5,6.1-5,10.5c0,3.8,1.2,6.8,3.6,8.9c2.4,2.1,5.7,3.1,9.9,3.1c2.2,0,4.4-0.4,6.4-1.3
						c2-0.9,3.5-2,4.2-3.3l0.3-0.5l0.2,0.6c0.4,1.1,1,2.2,2.1,3.1c1,0.9,2.1,1.4,3.4,1.4c1.2,0,2.2-0.2,3.1-0.4
						C411.2,362.2,411.9,361.5,412.6,360.4z M400.9,347.6c0,5.7-2.9,8.6-8.6,8.6c-4.3,0-6.4-1.9-6.4-5.6c0-4.9,3.8-7.4,11.2-7.4
						c0.8,0,2,0.2,3.6,0.5l0.2,0V347.6z"/>
				</g>
				<g>
					<path class="st3" d="M477.7,360.4c-2.1-1.5-3.1-4.8-3.1-10v-8.4c0-7.5-1.4-12.7-4.1-15.4c-2.7-2.7-7.1-4-13.1-4
						c-4.2,0-7.9,0.7-11,2.2l1.8,6.6c2.3-1.1,5.2-1.6,8.5-1.6c6,0,9.1,2.4,9.1,7.2v0.3l-0.3-0.1c-1.5-0.4-2.7-0.5-3.8-0.5
						c-6.2,0-11.1,1.3-14.5,3.8c-3.3,2.5-5,6.1-5,10.5c0,3.8,1.2,6.8,3.6,8.9c2.4,2.1,5.7,3.1,9.9,3.1c2.2,0,4.4-0.4,6.4-1.3
						c2-0.9,3.4-2,4.2-3.3l0.3-0.5l0.2,0.6c0.4,1.1,1,2.2,2.1,3.1c1,0.9,2.1,1.4,3.4,1.4c1.2,0,2.2-0.2,3.1-0.4
						C476.3,362.2,477.1,361.5,477.7,360.4z M466,347.6c0,5.7-2.9,8.6-8.6,8.6c-4.3,0-6.4-1.9-6.4-5.6c0-4.9,3.8-7.4,11.2-7.4
						c0.8,0,2,0.2,3.6,0.5l0.2,0V347.6z"/>
				</g>
				<path class="st3" d="M421.2,359.7c2.1,2.2,5,3.3,8.9,3.3c3.8,0,6.8-0.3,8.9-1v-7.8c-1.8,1.1-3.8,1.6-5.9,1.6
					c-2.3,0-3.9-0.6-4.9-1.9c-0.9-1.2-1.4-3.2-1.4-6.2v-17.6h10.8v-6.9h-10.8v-11.3l-8.7,3.2v8.1h-4.6v6.9h4.6v20.3
					C418.1,354.4,419.2,357.5,421.2,359.7z"/>
			</g>
			<g>
				<path class="st3" d="M484.7,351c0.7,0,1.5,0.2,2.2,0.6c0.7,0.4,1.2,0.9,1.6,1.6c0.4,0.7,0.6,1.4,0.6,2.2c0,0.8-0.2,1.5-0.6,2.2
					c-0.4,0.7-0.9,1.2-1.6,1.6c-0.7,0.4-1.4,0.6-2.2,0.6c-0.8,0-1.5-0.2-2.2-0.6c-0.7-0.4-1.2-0.9-1.6-1.6c-0.4-0.7-0.6-1.4-0.6-2.2
					c0-0.8,0.2-1.5,0.6-2.2c0.4-0.7,0.9-1.2,1.6-1.6C483.3,351.2,484,351,484.7,351z M484.7,351.9c-0.6,0-1.2,0.2-1.7,0.5
					c-0.6,0.3-1,0.7-1.3,1.3c-0.3,0.6-0.5,1.2-0.5,1.8c0,0.6,0.2,1.2,0.5,1.7c0.3,0.6,0.7,1,1.3,1.3c0.6,0.3,1.1,0.5,1.7,0.5
					c0.6,0,1.2-0.2,1.7-0.5c0.6-0.3,1-0.7,1.3-1.3c0.3-0.6,0.5-1.1,0.5-1.7c0-0.6-0.2-1.2-0.5-1.8c-0.3-0.6-0.8-1-1.3-1.3
					C485.9,352,485.3,351.9,484.7,351.9z M482.8,357.8v-4.6h0.9c0.9,0,1.4,0,1.5,0c0.3,0,0.5,0.1,0.7,0.2c0.2,0.1,0.3,0.2,0.4,0.4
					c0.1,0.2,0.2,0.4,0.2,0.7c0,0.3-0.1,0.6-0.3,0.9c-0.2,0.2-0.5,0.4-0.9,0.4c0.1,0.1,0.2,0.1,0.3,0.2c0.1,0.1,0.2,0.2,0.3,0.4
					c0,0,0.1,0.2,0.3,0.6l0.5,0.9h-1.2l-0.4-0.8c-0.3-0.5-0.5-0.8-0.6-1s-0.4-0.2-0.6-0.2h-0.2v1.9H482.8z M483.7,355.1h0.4
					c0.5,0,0.8,0,0.9,0c0.2,0,0.3-0.1,0.4-0.2c0.1-0.1,0.1-0.2,0.1-0.4c0-0.2-0.1-0.3-0.2-0.4c-0.1-0.1-0.2-0.2-0.4-0.2
					c-0.1,0-0.4,0-0.9,0h-0.4V355.1z"/>
			</g>
		</g>
		<g>
			<path class="st4" d="M438.9,244.6c0.3,0,0.5-0.1,0.8-0.2c0.3-0.2,0.7-0.4,1-0.6c0.8-0.5,1-1.5,0.5-2.3c-0.5-0.8-1.5-1-2.3-0.5
				c-0.3,0.2-0.6,0.4-0.9,0.6c-0.8,0.5-1,1.5-0.6,2.3C437.7,244.3,438.3,244.6,438.9,244.6z"/>
			<path class="st4" d="M376.9,237c0.3,0.2,0.6,0.4,0.9,0.6c0.2,0.2,0.5,0.2,0.8,0.3c0.6,0.1,1.2-0.2,1.5-0.7
				c0.5-0.8,0.3-1.8-0.4-2.3c-0.3-0.2-0.6-0.4-0.9-0.6c-0.7-0.5-1.8-0.3-2.3,0.4C376,235.4,376.2,236.5,376.9,237z"/>
			<path class="st4" d="M369.1,230.1c0.2,0.3,0.5,0.5,0.9,0.6c0.7,0.2,1.5,0.1,2.1-0.4c0.9-0.8,0.9-2.1,0.1-3
				c-0.3-0.3-0.6-0.7-0.9-1c-0.8-0.9-2.1-0.9-3-0.2c-0.9,0.8-0.9,2.1-0.2,3C368.5,229.4,368.8,229.8,369.1,230.1z"/>
			<path class="st4" d="M446.3,237.4c0.3,0.2,0.7,0.4,1.1,0.3c0.5,0,1-0.2,1.3-0.7c0.3-0.3,0.5-0.7,0.7-1c0.5-0.8,0.2-1.8-0.5-2.3
				c-0.8-0.5-1.8-0.2-2.3,0.6c-0.2,0.3-0.3,0.5-0.5,0.8C445.5,235.8,445.6,236.8,446.3,237.4z"/>
			<path class="st4" d="M371.4,236.8c-0.5,1-0.1,2.3,1,2.8c0.4,0.2,0.7,0.3,1.1,0.5c1.1,0.5,2.3,0,2.7-1.1c0.1-0.1,0.1-0.3,0.1-0.4
				c0.2-1-0.3-2-1.2-2.4c-0.3-0.1-0.6-0.3-0.9-0.4C373.1,235.3,371.9,235.7,371.4,236.8z"/>
			<path class="st4" d="M366.9,234.2c0.7,0.7,1.9,0.6,2.5-0.1c0.1-0.1,0.1-0.2,0.2-0.3c0.4-0.7,0.3-1.7-0.3-2.3
				c-0.2-0.2-0.4-0.4-0.6-0.6c-0.7-0.7-1.8-0.7-2.5,0c-0.7,0.7-0.7,1.8,0,2.5C366.3,233.8,366.6,234,366.9,234.2z"/>
			<path class="st4" d="M365,239.1c0.6,0.5,1.4,0.5,1.9-0.1c0.1-0.1,0.1-0.1,0.2-0.2c0.3-0.6,0.2-1.3-0.3-1.7
				c-0.2-0.2-0.3-0.3-0.5-0.5c-0.5-0.5-1.4-0.5-1.9,0c-0.5,0.5-0.5,1.4,0,1.9C364.6,238.8,364.8,238.9,365,239.1z"/>
			<path class="st4" d="M414.6,253.8c0-0.1,0-0.2,0-0.4c0.2,0,0.5,0,0.7,0c0,0,0.1,0,0.1,0c1.1,0,2-1,2-2.1c0-0.1,0-0.2,0-0.3
				c0.3,0.1,0.5,0.2,0.8,0.2c0.4,0,0.8,0,1.1-0.1c0.9-0.1,1.6-0.8,1.5-1.8c-0.1-0.9-0.9-1.6-1.8-1.5c-0.3,0-0.7,0-1.1,0.1
				c-0.9,0-1.6,0.8-1.6,1.7c-0.3-0.2-0.7-0.4-1.2-0.4c-0.3,0-0.7,0-1.1,0c-1.1,0-2,0.8-2.1,1.9c-0.3,0-0.7,0-1-0.1
				c-1.4-0.1-2.6,1-2.7,2.3c0,0,0,0,0,0.1c-1.5,0-2.8,1.1-2.9,2.7c0,0.4,0,0.8,0.1,1.2c-1.3,0.4-2.2,1.6-2.3,3c0,0.2,0,0.4,0,0.6
				c-1,0.6-1.7,1.7-1.7,3c-0.1,2.1,1.5,3.9,3.6,4l1.1,0c0.1,0,0.2,0,0.3,0c2-0.1,3.6-1.6,3.7-3.6c0-0.5-0.1-0.9-0.2-1.3
				c0.6-0.6,1-1.4,1-2.2c0-0.6-0.1-1.1-0.3-1.6c0.9-0.4,1.6-1.3,1.7-2.4c0-0.2,0-0.4,0-0.6C413.6,255.9,414.5,255,414.6,253.8z"/>
			<path class="st4" d="M379.6,242.7c-1.4-0.3-2.7,0.6-3,2c-0.1,0.7,0,1.4,0.4,2c-0.2,0-0.3-0.1-0.5-0.1c-1.6-0.1-3,1.2-3.1,2.8
				c-0.1,1.6,1.2,3,2.8,3.1c0,0,0.1,0,0.2,0c0.4,0.2,0.8,0.2,1.2,0.2c1.1,0,2.2-0.7,2.6-1.9c0.4-1,0.2-2.1-0.5-2.9
				c0.2,0,0.4,0.1,0.6,0.1c1.1,0,2-0.8,2.3-1.9c0.1-0.5,0.1-0.9,0-1.4c0,0,0,0,0.1,0c0.3,0.2,0.7,0.2,1,0.2c0.7,0,1.4-0.4,1.8-1.1
				c0.1-0.2,0.1-0.4,0.2-0.5c0.3,0.2,0.6,0.3,0.9,0.5c0.3,0.1,0.5,0.2,0.8,0.2c0.6,0,1.1-0.4,1.4-0.9c0.4-0.8,0.1-1.8-0.8-2.2
				c-0.3-0.2-0.7-0.3-1-0.5c-0.8-0.4-1.8-0.1-2.2,0.7c0,0,0,0.1-0.1,0.1c-0.1,0-0.1-0.1-0.2-0.1c-0.3-0.2-0.7-0.3-1-0.5
				c-1-0.5-2.3-0.1-2.8,0.9c-0.3,0.5-0.3,1-0.2,1.5C380.3,242.8,379.9,242.7,379.6,242.7z"/>
			<path class="st4" d="M370.3,240.3c-0.4,0-0.8,0-1.2,0c-1.4,0.1-2.5,1.2-2.4,2.6c0,1.4,1.2,2.5,2.6,2.4c0.3,0,0.7,0,1,0
				c0.1,0,0.2,0,0.4,0c1.2-0.2,2.2-1.2,2.2-2.5C372.8,241.4,371.7,240.3,370.3,240.3z"/>
			<path class="st4" d="M423.4,256c0-0.1-0.1-0.3-0.1-0.4c0,0,0,0,0,0c1.4-0.2,2.3-1.5,2.1-2.9c0-0.1,0-0.2-0.1-0.2c0,0,0,0,0.1,0
				c0.4-0.1,0.7-0.2,1.1-0.2c1.1-0.2,1.8-1.4,1.6-2.5c0-0.2-0.1-0.4-0.2-0.5c0.1,0,0.2,0,0.3,0c0.2,0,0.3,0,0.4-0.1
				c0.4-0.1,0.7-0.2,1.1-0.4c0.9-0.3,1.3-1.3,1-2.1c-0.3-0.9-1.3-1.3-2.1-1c-0.3,0.1-0.7,0.2-1,0.3c-0.9,0.3-1.3,1.2-1.1,2.1
				c0,0,0,0.1,0,0.1c-0.3-0.1-0.7-0.1-1,0c-0.3,0.1-0.7,0.1-1,0.2c-1,0.2-1.8,1.2-1.7,2.2c-0.1,0-0.3,0-0.4,0
				c-0.3,0.1-0.7,0.1-1,0.1c-1.3,0.2-2.3,1.4-2.2,2.7c-0.1,0-0.2,0-0.3,0c-1.6,0.2-2.8,1.6-2.7,3.2c0,0.2,0,0.3,0.1,0.5
				c-1.5,0.5-2.4,1.9-2.3,3.5c0,0.1,0,0.1,0,0.2c-1.1,0.7-1.8,2-1.7,3.4c0.1,2.1,1.9,3.6,3.9,3.5c0,0,0.1,0,0.1,0
				c0.4,0,0.8-0.1,1.2-0.1c2.1-0.2,3.6-2,3.5-4.1c0-0.3-0.1-0.7-0.2-1c0.7-0.7,1.2-1.7,1-2.8c0-0.3-0.1-0.6-0.3-0.9
				C422.9,258.4,423.6,257.2,423.4,256z"/>
			<path class="st4" d="M434.1,253.2c0-0.1-0.1-0.2-0.1-0.3c0.2-0.1,0.4-0.1,0.5-0.2c1.3-0.5,2-1.9,1.5-3.2c0-0.1-0.1-0.2-0.2-0.3
				c0.2,0,0.4-0.1,0.6-0.2c0.4-0.2,0.7-0.3,1-0.5c1-0.5,1.5-1.7,1-2.8c-0.5-1-1.8-1.5-2.8-1c-0.3,0.2-0.6,0.3-0.9,0.4
				c-1,0.5-1.5,1.6-1.1,2.6c-0.3,0-0.6,0-0.8,0.1c-0.3,0.1-0.7,0.2-1,0.3c-1.2,0.4-1.9,1.7-1.6,2.9c-0.3,0.1-0.5,0.2-0.8,0.2
				c-1.5,0.4-2.4,2.1-2,3.6c-1.7,0.6-2.6,2.3-2.2,4c-1.3,0.9-2,2.5-1.6,4.1c0.4,1.8,2.1,3,3.8,2.9c0.3,0,0.5,0,0.8-0.1
				c0.4-0.1,0.8-0.2,1.1-0.3c2-0.5,3.2-2.6,2.7-4.7c-0.1-0.2-0.1-0.4-0.2-0.6c0.9-0.8,1.4-2.2,1-3.5c0-0.1-0.1-0.3-0.2-0.4
				C433.9,256,434.5,254.6,434.1,253.2z"/>
			<path class="st4" d="M401.6,254.6c1-0.2,1.8-0.9,2-1.9c0-0.2,0.1-0.3,0.1-0.5c0.1,0,0.2,0,0.3,0.1c0.2,0,0.3,0,0.5,0
				c0.9,0,1.8-0.7,2-1.7c0-0.1,0-0.2,0-0.4c0.1,0.1,0.3,0.1,0.4,0.1c0.4,0.1,0.7,0.1,1.1,0.2c0.1,0,0.2,0,0.3,0
				c0.8,0,1.4-0.6,1.6-1.4c0.1-0.9-0.5-1.7-1.4-1.9c-0.4-0.1-0.7-0.1-1.1-0.2c-0.9-0.2-1.7,0.4-1.9,1.3c-0.2-0.2-0.5-0.3-0.8-0.3
				c-0.3-0.1-0.7-0.1-1-0.2c-1.1-0.2-2.2,0.5-2.5,1.6c0,0,0,0,0,0c-0.2,0-0.4-0.1-0.6-0.1c-1.3-0.3-2.7,0.5-3,1.9
				c0,0.1,0,0.2-0.1,0.3c-1.4,0-2.6,0.9-2.9,2.3c-0.2,0.7,0,1.3,0.2,1.9c-1.3,0.3-2.3,1.4-2.5,2.8c-0.1,0.6,0,1.1,0.2,1.6
				c-1.2,0.6-1.9,1.9-2,3.3c0,2.1,1.7,3.8,3.8,3.9c0.3,0,0.7,0,1.1,0c0.1,0,0.2,0,0.2,0c2-0.1,3.6-1.7,3.7-3.7
				c0-0.6-0.1-1.2-0.4-1.7c0.6-0.5,1.1-1.3,1.2-2.1c0.1-0.8-0.1-1.6-0.5-2.2c0.9-0.3,1.6-1.1,1.8-2.1
				C401.6,255.2,401.6,254.9,401.6,254.6z"/>
			<path class="st4" d="M444.1,248.6c-0.1-0.1-0.1-0.2-0.2-0.3l0,0c0.3-0.2,0.7-0.4,1-0.6c1.2-0.7,1.5-2.3,0.8-3.5
				c-0.2-0.3-0.5-0.6-0.8-0.8c0.1,0,0.1,0,0.1,0c0.4,0,0.8-0.2,1.2-0.4c0.3-0.2,0.6-0.5,0.9-0.7c0.9-0.7,1-2,0.3-2.9
				c-0.7-0.9-2-1-2.9-0.3c-0.3,0.2-0.5,0.4-0.8,0.6c-0.9,0.7-1.1,2-0.4,2.9c0.1,0.2,0.3,0.3,0.4,0.4c-0.5,0-1.1,0.1-1.5,0.4
				c-0.3,0.2-0.6,0.4-0.9,0.5c-1.1,0.7-1.5,2.1-1,3.2c-0.1,0-0.1,0-0.2,0.1c-0.3,0.2-0.6,0.3-1,0.5c-1.4,0.6-2,2.2-1.5,3.6
				c-0.1,0-0.2,0.1-0.3,0.1c-1.6,0.7-2.4,2.5-1.8,4.2c-1.5,1-2.2,2.9-1.5,4.7c0.6,1.5,2.1,2.4,3.7,2.3c0.4,0,0.9-0.1,1.3-0.3
				c0.3-0.1,0.7-0.3,1.1-0.4c1.9-0.8,2.8-3.1,2-5c0-0.1-0.1-0.2-0.2-0.3c1.1-1,1.5-2.5,0.8-3.9c0-0.1-0.1-0.1-0.1-0.2v0
				C444.3,251.9,444.9,250.1,444.1,248.6z"/>
			<path class="st4" d="M390.8,252.9c0.1-0.5,0.1-0.9,0-1.4c1-0.1,1.8-0.7,2.2-1.7c0.1-0.2,0.1-0.4,0.1-0.6c0.2,0.1,0.5,0.1,0.7,0.1
				c0.8,0,1.6-0.6,1.9-1.4c0.1-0.1,0.1-0.3,0.1-0.4c0,0,0.1,0,0.1,0.1c0.4,0.1,0.7,0.2,1.1,0.4c0.2,0.1,0.4,0.1,0.6,0.1
				c0.7,0,1.3-0.5,1.5-1.1c0.3-0.9-0.2-1.8-1.1-2.1c-0.3-0.1-0.7-0.2-1-0.3c-0.9-0.3-1.8,0.2-2.1,1c0,0,0,0,0,0
				c-0.1-0.1-0.3-0.2-0.5-0.2c-0.3-0.1-0.7-0.2-1-0.4c-1.1-0.4-2.3,0.1-2.7,1.2c0,0.1-0.1,0.2-0.1,0.3l-0.3-0.1
				c-1.3-0.5-2.8,0.2-3.2,1.5c-0.2,0.4-0.2,0.9-0.1,1.3c-1.5-0.1-2.8,0.9-3.1,2.3c-0.2,1.2,0.3,2.3,1.2,3c-0.1,0-0.1,0-0.1,0
				c-1.9-0.1-3.5,1.3-3.6,3.2c-0.1,1.2,0.5,2.3,1.4,2.9c0,0,0,0,0,0c-2.1,0.4-3.5,2.3-3.1,4.4c0.3,1.9,2,3.2,3.9,3.2
				c0.2,0,0.3,0,0.5-0.1c0.3-0.1,0.7-0.1,1-0.2c2.1-0.3,3.5-2.2,3.2-4.3c-0.2-1-0.7-1.9-1.4-2.4c1.3-0.4,2.3-1.5,2.4-3
				c0.1-1.2-0.4-2.2-1.3-2.9c0,0,0,0,0,0C389.3,255.2,390.5,254.3,390.8,252.9z"/>
			<path class="st4" d="M369.8,249.4c-0.5-1.6-2.1-2.4-3.7-1.9c-0.4,0.1-0.8,0.3-1.2,0.4c-1.5,0.6-2.3,2.3-1.7,3.8
				c0.4,1.1,1.4,1.8,2.5,1.9c0.4,0,0.8,0,1.3-0.2c0.3-0.1,0.6-0.2,0.9-0.3C369.4,252.6,370.3,250.9,369.8,249.4z"/>
			<path class="st4" d="M363.5,257.4c-0.4,0.1-0.8,0.2-1.2,0.3c-1.8,0.5-2.9,2.4-2.4,4.2c0.3,1,0.9,1.7,1.8,2.1
				c0.7,0.4,1.5,0.5,2.4,0.2c0.3-0.1,0.6-0.2,1-0.2c1.8-0.4,2.9-2.3,2.5-4.1C367.1,258.1,365.3,257,363.5,257.4z"/>
			<path class="st4" d="M374.7,253.3c-0.4,0.1-0.9,0.1-1.3,0.3c-1.8,0.4-2.9,2.2-2.5,4c0.3,1.4,1.5,2.4,2.9,2.5c0.3,0,0.7,0,1.1-0.1
				c0.3-0.1,0.5-0.1,0.8-0.2c1.8-0.3,3.1-1.9,2.8-3.8C378.2,254.3,376.6,253,374.7,253.3z"/>
			<path class="st4" d="M452.4,247.1c-0.1-0.1-0.2-0.2-0.3-0.4c0.2-0.1,0.4-0.3,0.5-0.4c1.3-1,1.5-2.9,0.4-4.1
				c-0.2-0.2-0.4-0.4-0.6-0.6c0.3-0.1,0.5-0.3,0.7-0.5c0.3-0.3,0.6-0.6,0.8-0.9c0.9-1,0.8-2.6-0.3-3.5c-1-0.9-2.6-0.8-3.6,0.2
				c-0.2,0.2-0.4,0.5-0.7,0.7c-0.9,1-0.9,2.6,0.1,3.6c0,0,0.1,0.1,0.2,0.1c-0.3,0.1-0.6,0.2-0.8,0.4c-0.3,0.2-0.5,0.4-0.8,0.6
				c-1.2,0.9-1.5,2.6-0.7,3.9c-0.2,0.1-0.4,0.3-0.6,0.4c-1.4,0.9-2,2.7-1.3,4.2c-1.7,1.1-2.2,3.3-1.2,5c0.7,1.3,2.1,2,3.5,1.9
				c0.6,0,1.2-0.2,1.7-0.5c0.3-0.2,0.7-0.4,1-0.6c1.8-1,2.5-3.4,1.4-5.2c0,0-0.1-0.1-0.1-0.1C453,250.4,453.3,248.5,452.4,247.1z"/>
			<path class="st4" d="M466.4,233.4c0.4,0.1,0.8,0.2,1.3,0.2c0,0,0.1,0,0.1,0c2.1-0.1,3.7-1.9,3.6-4c0-0.5-0.1-0.9-0.1-1.4
				c-0.3-2.1-2.2-3.5-4.3-3.3c-2,0.3-3.5,2.1-3.3,4.1c-1.8-0.3-3.5,1-3.8,2.8c0,0.3-0.1,0.5-0.2,0.8c-0.1,0.2-0.1,0.5-0.1,0.7
				c-0.1-0.1-0.2-0.1-0.3-0.2c-1.4-0.7-3.2-0.2-4,1.3c-0.1,0.3-0.3,0.5-0.4,0.8c-0.8,1.4-0.4,3.2,1,4c0,0,0,0,0,0
				c-0.1,0.1-0.3,0.2-0.4,0.4c-0.2,0.2-0.5,0.5-0.7,0.7c-1.2,1.3-1.3,3.3-0.1,4.6c-1.6,1.3-1.9,3.7-0.6,5.3c0.8,1,2,1.5,3.1,1.5
				c0.8,0,1.5-0.3,2.2-0.8c0.3-0.2,0.6-0.5,0.9-0.7c1.6-1.3,1.9-3.7,0.6-5.4c-0.2-0.2-0.3-0.4-0.5-0.5c0,0,0.1-0.1,0.1-0.1
				c0.5-0.5,0.8-1.2,0.8-1.9c0.3,0.4,0.6,0.7,1,0.9c0.7,0.5,1.5,0.7,2.3,0.6c1.2,0,2.3-0.6,3-1.7c0.2-0.4,0.5-0.7,0.7-1.1
				c1.1-1.8,0.5-4.1-1.3-5.2c-0.4-0.3-0.9-0.4-1.3-0.5c0.3-0.3,0.5-0.7,0.6-1.2C466.3,234,466.3,233.7,466.4,233.4z M461.3,238.1
				c-0.4,0.6-0.6,1.2-0.6,1.8c-0.1-0.1-0.2-0.3-0.4-0.4c-0.3-0.2-0.6-0.4-0.9-0.6c0.2-0.2,0.4-0.4,0.5-0.6c0.2-0.4,0.4-0.8,0.6-1.1
				c0.2-0.3,0.3-0.7,0.3-1c0.4,0.3,0.8,0.5,1.3,0.6c0,0,0,0,0,0c-0.1,0.2-0.3,0.3-0.4,0.5C461.6,237.5,461.4,237.8,461.3,238.1z"/>
			<path class="st4" d="M457.2,222.4c-0.1,0-0.2,0.1-0.3,0.1c-1.3,0.6-1.9,2.1-1.5,3.5c-0.1,0-0.3,0-0.4,0.1c-1.4,0.3-2.2,1.7-1.9,3
				c0.1,0.2,0.1,0.5,0.1,0.8c0,0.1,0,0.2,0.1,0.3c-0.2-0.1-0.5-0.2-0.7-0.3c-1.1-0.2-2.2,0.6-2.4,1.7c0,0.3-0.1,0.5-0.2,0.8
				c-0.3,1.1,0.3,2.3,1.4,2.6c0.2,0.1,0.5,0.1,0.7,0.1c0.9,0,1.6-0.6,1.9-1.5c0.1-0.5,0.2-0.9,0.3-1.4c0-0.2,0-0.4,0-0.6
				c0.4,0.3,1,0.5,1.5,0.5c0.1,0,0.1,0,0.1,0c1.4-0.1,2.4-1.3,2.3-2.7c0-0.1,0-0.2-0.1-0.3c0.2,0,0.4,0.1,0.6,0.1
				c0.3,0,0.7-0.1,1-0.2c1.1-0.5,1.9-1.5,1.9-2.7c0.5-0.1,0.9-0.2,1.3-0.4c0.9-0.5,1.4-1.4,1.6-2.4c0.4-0.1,0.9-0.3,1.3-0.6
				c1.7-1.3,2-3.7,0.7-5.3c-0.3-0.3-0.5-0.7-0.8-1c-1.3-1.6-3.7-1.9-5.4-0.5c-1,0.8-1.4,1.9-1.4,3.1c-0.1,0.1-0.2,0.1-0.3,0.2
				C457.5,220,457,221.2,457.2,222.4z"/>
			<path class="st4" d="M372.7,263.1c-0.3,0.1-0.7,0.3-1,0.4c-1.8,0.7-2.7,2.8-2,4.6c0.6,1.4,2,2.3,3.4,2.2c0.4,0,0.8-0.1,1.2-0.3
				c0.3-0.1,0.6-0.2,0.9-0.3c1.8-0.7,2.8-2.7,2.1-4.6C376.6,263.3,374.6,262.4,372.7,263.1z"/>
			<path class="st4" d="M447.6,229.7c0,0,0.4,0,0.9,0.2c0.3,0.1,0.6,0.1,0.9,0c0.5-0.2,1-0.6,1.1-1.2c0.2-0.6-0.1-1.3-0.6-1.7
				c0.2,0,0.5,0,0.7-0.1c0.7-0.2,1.2-0.7,1.4-1.4c0.1-0.5,0.1-1-0.2-1.5c0,0,0,0,0.1,0c0.8-0.2,1.4-0.9,1.7-1.7c0.1-0.5,0.1-1,0-1.4
				c0.7-0.3,1.3-1,1.5-1.8c0.2-0.4,0.2-0.9,0.1-1.3c0.7-0.4,1.2-1,1.5-1.8c0.1-0.4,0.2-0.9,0.2-1.3c0.6-0.4,1.1-1.1,1.4-1.8
				c0.7-2-0.4-4.2-2.4-4.8c-0.8-0.3-1.3-0.4-1.3-0.4c-2-0.6-4.1,0.6-4.7,2.7c-0.2,0.7-0.2,1.5,0,2.1c-0.4,0.4-0.7,0.9-0.8,1.4
				c-0.2,0.7-0.1,1.4,0.1,2c-0.4,0.4-0.7,0.9-0.9,1.5c-0.1,0.7,0,1.4,0.3,2c-0.5,0.4-0.9,0.9-1,1.6c-0.1,0.7,0,1.4,0.4,1.9
				c-0.6,0.3-1.1,0.9-1.2,1.6c-0.1,0.8,0.3,1.6,0.9,2c-0.8,0-1.6,0.6-1.6,1.5C446,228.8,446.7,229.6,447.6,229.7z"/>
			<path class="st4" d="M361.6,269.8c-0.4,0.1-0.8,0.2-1.1,0.3c-2,0.5-3.2,2.6-2.7,4.7c0.5,1.9,2.3,3,4.2,2.8c0.2,0,0.3-0.1,0.5-0.1
				c0.3-0.1,0.7-0.2,1-0.3c2-0.5,3.3-2.6,2.8-4.6C365.7,270.5,363.7,269.3,361.6,269.8z"/>
		</g>
		<g>
			<path class="st3" d="M358.7,219c0.4,0.8,1.2,1.3,2,1.3c0.3,0,0.6-0.1,0.9-0.2c1.1-0.5,1.6-1.8,1.1-2.9c0,0-0.1-0.2-0.3-0.6
				c-0.5-1.1-1.8-1.5-2.9-1c-1.1,0.5-1.5,1.8-1,2.9C358.7,218.8,358.7,218.9,358.7,219z"/>
			<path class="st3" d="M212.3,222.9c0.4,0,0.7-0.1,1.1-0.3l0.9-0.5c1-0.6,1.4-1.9,0.8-3c-0.6-1-1.9-1.4-3-0.8l-0.9,0.5
				c-1,0.6-1.4,1.9-0.8,3C210.8,222.5,211.5,222.9,212.3,222.9z"/>
			<path class="st3" d="M224.5,216.1c0.3,0,0.7-0.1,1-0.3l0.9-0.5c1.1-0.6,1.5-1.9,0.9-2.9c-0.6-1.1-1.9-1.5-2.9-0.9l-1,0.5
				c-1.1,0.6-1.5,1.9-0.9,2.9C222.9,215.7,223.7,216.1,224.5,216.1z"/>
			<path class="st3" d="M353.5,210.7c0.4,0.5,1,0.7,1.6,0.7c0.5,0,1-0.2,1.5-0.6c0.9-0.8,1-2.2,0.2-3.1c-0.2-0.3-0.5-0.5-0.8-0.8
				c-0.8-0.9-2.2-0.9-3.1-0.1c-0.9,0.8-0.9,2.2-0.1,3.1C353.1,210.2,353.3,210.4,353.5,210.7z"/>
			<path class="st3" d="M236.9,209.8c0.3,0,0.6-0.1,0.9-0.2l1-0.5c1.1-0.5,1.6-1.8,1-2.9c-0.5-1.1-1.8-1.6-2.9-1l-1,0.5
				c-1.1,0.5-1.5,1.8-1,2.9C235.3,209.4,236.1,209.8,236.9,209.8z"/>
			<path class="st3" d="M249.7,204.2c0.3,0,0.6-0.1,0.8-0.2l1-0.4c1.1-0.4,1.7-1.7,1.2-2.8c-0.5-1.1-1.7-1.7-2.8-1.2l-1,0.4
				c-1.1,0.5-1.6,1.7-1.2,2.8C248,203.7,248.8,204.2,249.7,204.2z"/>
			<path class="st3" d="M342.5,201.4c0.3,0.2,0.6,0.4,0.9,0.6c0.4,0.3,0.8,0.4,1.2,0.4c0.7,0,1.4-0.3,1.8-1c0.7-1,0.4-2.4-0.6-3
				c-0.3-0.2-0.6-0.4-0.9-0.6c-1-0.7-2.4-0.4-3,0.7C341.2,199.4,341.5,200.7,342.5,201.4z"/>
			<path class="st3" d="M262.8,199.3c0.2,0,0.5,0,0.7-0.1l1-0.3c1.1-0.4,1.8-1.6,1.4-2.7c-0.4-1.1-1.6-1.8-2.7-1.4l-1,0.3
				c-1.1,0.4-1.8,1.6-1.4,2.8C261,198.7,261.9,199.3,262.8,199.3z"/>
			<path class="st3" d="M330.5,195.5c0.3,0.1,0.7,0.2,1,0.4c0.2,0.1,0.5,0.1,0.8,0.1c0.9,0,1.7-0.5,2-1.4c0.4-1.1-0.2-2.4-1.3-2.8
				c-0.3-0.1-0.7-0.3-1-0.4c-1.1-0.4-2.4,0.2-2.8,1.3C328.7,193.8,329.3,195.1,330.5,195.5z"/>
			<path class="st3" d="M276.1,195.4c0.2,0,0.4,0,0.5-0.1l1-0.3c1.2-0.3,1.9-1.5,1.6-2.6c-0.3-1.2-1.5-1.9-2.6-1.6l-1.1,0.3
				c-1.2,0.3-1.9,1.5-1.6,2.6C274.3,194.7,275.2,195.4,276.1,195.4z"/>
			<path class="st3" d="M289.8,192.6c0.1,0,0.2,0,0.3,0c0.3,0,0.7-0.1,1-0.1c1.2-0.2,2-1.3,1.9-2.4c-0.2-1.2-1.3-2-2.4-1.9
				c-0.4,0-0.7,0.1-1.1,0.2c-1.2,0.2-2,1.3-1.8,2.5C287.8,191.9,288.8,192.6,289.8,192.6z"/>
			<path class="st3" d="M317.3,192.3c0.3,0,0.7,0.1,1,0.2c0.1,0,0.2,0,0.3,0c1.1,0,2-0.8,2.1-1.8c0.2-1.2-0.6-2.3-1.8-2.5
				c-0.4-0.1-0.7-0.1-1.1-0.2c-1.2-0.2-2.3,0.7-2.5,1.8C315.3,191,316.1,192.1,317.3,192.3z"/>
			<path class="st3" d="M303.7,191.5C303.7,191.5,303.8,191.5,303.7,191.5c0.4,0,0.7,0,1.1,0c1.2,0,2.2-1,2.2-2.2
				c0-1.2-1-2.2-2.2-2.2h0c-0.4,0-0.7,0-1.1,0c-1.2,0-2.2,1-2.1,2.2C301.6,190.5,302.6,191.5,303.7,191.5z"/>
			<path class="st3" d="M362.8,225.4c0,0-0.1-0.2-0.3-0.5c-0.7-1.2-2.2-1.6-3.4-0.9c-1.2,0.7-1.6,2.2-0.9,3.4
				c0.1,0.2,0.2,0.3,0.2,0.3c0.4,0.8,1.3,1.3,2.2,1.3c0.4,0,0.8-0.1,1.1-0.3C363,228.1,363.5,226.6,362.8,225.4z"/>
			<path class="st3" d="M223.8,222.6c0.4,0,0.7-0.1,1.1-0.2l1-0.5c1.2-0.6,1.8-2.1,1.2-3.3c-0.6-1.2-2.1-1.8-3.3-1.2l-1,0.5
				c-1.2,0.6-1.7,2.1-1.1,3.3C222,222.1,222.9,222.6,223.8,222.6z"/>
			<path class="st3" d="M351.8,219.7c0.5,0.5,1.1,0.7,1.7,0.7c0.7,0,1.3-0.3,1.8-0.8c0.9-1,0.9-2.6-0.1-3.5
				c-0.3-0.3-0.5-0.5-0.8-0.8c-1-0.9-2.6-0.8-3.5,0.2c-0.9,1-0.8,2.6,0.2,3.5C351.3,219.2,351.6,219.4,351.8,219.7z"/>
			<path class="st3" d="M236.2,217c0.3,0,0.7-0.1,1-0.2l1-0.4c1.3-0.5,1.9-2,1.3-3.2c-0.5-1.3-2-1.9-3.2-1.3l-1,0.4
				c-1.3,0.5-1.9,2-1.3,3.3C234.4,216.4,235.3,217,236.2,217z"/>
			<path class="st3" d="M340.4,211.5c0.3,0.2,0.6,0.3,0.9,0.5c0.4,0.2,0.8,0.3,1.2,0.3c0.9,0,1.7-0.5,2.2-1.3c0.7-1.2,0.2-2.7-1-3.4
				c-0.3-0.2-0.6-0.4-1-0.5c-1.2-0.6-2.7-0.2-3.4,1C338.8,209.4,339.2,210.9,340.4,211.5z"/>
			<path class="st3" d="M248.9,212c0.3,0,0.6,0,0.8-0.1l1-0.4c1.3-0.5,2-1.9,1.5-3.2c-0.4-1.3-1.9-2-3.2-1.5l-1,0.4
				c-1.3,0.5-2,1.9-1.5,3.2C246.9,211.4,247.9,212,248.9,212z"/>
			<path class="st3" d="M261.9,207.9c0.2,0,0.4,0,0.7-0.1l1-0.3c1.3-0.4,2.1-1.7,1.7-3c-0.4-1.3-1.7-2.1-3.1-1.7l-1,0.3
				c-1.3,0.4-2.1,1.7-1.7,3.1C259.8,207.2,260.8,207.9,261.9,207.9z"/>
			<path class="st3" d="M328.3,206.5c0.3,0.1,0.7,0.2,1,0.3c0.3,0.1,0.5,0.1,0.8,0.1c1,0,2-0.7,2.4-1.7c0.4-1.3-0.3-2.7-1.6-3.1
				c-0.3-0.1-0.7-0.2-1.1-0.3c-1.3-0.4-2.7,0.3-3.1,1.6C326.3,204.7,327,206.1,328.3,206.5z"/>
			<path class="st3" d="M275.1,204.7c0.2,0,0.3,0,0.5,0c0.3-0.1,0.7-0.1,1-0.2c1.4-0.2,2.2-1.5,2-2.9c-0.2-1.3-1.5-2.2-2.9-2
				c-0.4,0.1-0.7,0.1-1.1,0.2c-1.4,0.3-2.2,1.6-2,2.9C272.9,203.9,274,204.7,275.1,204.7z"/>
			<path class="st3" d="M315.4,203.6c0.4,0.1,0.7,0.1,1,0.2c0.1,0,0.3,0,0.4,0c1.2,0,2.2-0.9,2.4-2.1c0.2-1.4-0.7-2.6-2.1-2.8
				c-0.4-0.1-0.7-0.1-1.1-0.2c-1.3-0.2-2.6,0.7-2.8,2.1C313.1,202.1,314,203.4,315.4,203.6z"/>
			<path class="st3" d="M288.6,202.8c0.1,0,0.1,0,0.2,0c0.3,0,0.7-0.1,1-0.1c1.4-0.1,2.4-1.3,2.3-2.7c-0.1-1.4-1.3-2.4-2.7-2.3
				c-0.4,0-0.7,0.1-1.1,0.1c-1.4,0.1-2.4,1.3-2.2,2.7C286.2,201.9,287.3,202.8,288.6,202.8z"/>
			<path class="st3" d="M302.1,202.4l1.1,0c0,0,0.1,0,0.1,0c1.3,0,2.4-1,2.5-2.4c0-1.4-1-2.5-2.4-2.6l-0.9,0l-0.2,0
				c-1.4,0-2.5,1-2.6,2.4C299.7,201.2,300.7,202.4,302.1,202.4z"/>
			<path class="st3" d="M361.7,231.4c-1-1.2-2.7-1.4-3.9-0.4c-1.2,1-1.4,2.7-0.4,3.9c0.1,0.1,0.1,0.2,0.1,0.2
				c0.5,0.7,1.4,1.1,2.2,1.1c0.6,0,1.1-0.2,1.6-0.5c1.2-0.9,1.5-2.6,0.6-3.9C362,231.7,361.9,231.6,361.7,231.4z"/>
			<path class="st3" d="M349.4,228.1c0.3,0.2,0.5,0.4,0.8,0.6c0.5,0.4,1.1,0.6,1.7,0.6c0.8,0,1.7-0.4,2.2-1.1c0.9-1.2,0.7-3-0.5-3.9
				c-0.3-0.2-0.6-0.5-0.9-0.7c-1.2-0.9-3-0.7-3.9,0.6C347.9,225.4,348.1,227.2,349.4,228.1z"/>
			<path class="st3" d="M223.6,229.1c0.4,0,0.7-0.1,1.1-0.2l1-0.4c1.4-0.6,2.1-2.2,1.5-3.6c-0.6-1.4-2.2-2.1-3.6-1.5l-1,0.4
				c-1.4,0.6-2.1,2.2-1.5,3.7C221.5,228.5,222.5,229.1,223.6,229.1z"/>
			<path class="st3" d="M235.9,224.2c0.3,0,0.6-0.1,1-0.2l1-0.4c1.4-0.5,2.2-2.1,1.6-3.6c-0.5-1.4-2.1-2.2-3.6-1.7l-1,0.4
				c-1.4,0.5-2.2,2.1-1.6,3.6C233.7,223.5,234.7,224.2,235.9,224.2z"/>
			<path class="st3" d="M338.4,221.8c0.3,0.1,0.6,0.3,1,0.4c0.4,0.2,0.8,0.3,1.2,0.3c1.1,0,2.1-0.6,2.5-1.6c0.6-1.4,0-3-1.4-3.7
				c-0.3-0.2-0.7-0.3-1-0.5c-1.4-0.6-3,0-3.7,1.4C336.4,219.6,337,221.2,338.4,221.8z"/>
			<path class="st3" d="M248.4,219.9c0.3,0,0.5,0,0.8-0.1l1-0.3c1.5-0.4,2.3-2,1.9-3.5c-0.4-1.5-2-2.3-3.4-1.9l-1,0.3
				c-1.5,0.4-2.3,2-1.9,3.5C246.1,219.1,247.3,219.9,248.4,219.9z"/>
			<path class="st3" d="M326.3,217.6c0.3,0.1,0.7,0.2,1,0.3c0.3,0.1,0.5,0.1,0.8,0.1c1.2,0,2.3-0.8,2.7-2c0.4-1.5-0.4-3-1.9-3.4
				c-0.4-0.1-0.7-0.2-1.1-0.3c-1.5-0.4-3,0.5-3.4,1.9C323.9,215.7,324.8,217.2,326.3,217.6z"/>
			<path class="st3" d="M261.3,216.5c0.2,0,0.4,0,0.6-0.1l1-0.2c1.5-0.3,2.5-1.8,2.1-3.3c-0.3-1.5-1.8-2.5-3.3-2.1l-1.1,0.2
				c-1.5,0.3-2.4,1.8-2.1,3.3C258.9,215.7,260,216.5,261.3,216.5z"/>
			<path class="st3" d="M313.6,214.9c0.3,0.1,0.7,0.1,1,0.2c0.2,0,0.3,0,0.5,0c1.3,0,2.5-1,2.7-2.3c0.3-1.5-0.8-3-2.3-3.2
				c-0.4-0.1-0.7-0.1-1.1-0.2c-1.5-0.2-3,0.8-3.2,2.3C311,213.2,312.1,214.6,313.6,214.9z"/>
			<path class="st3" d="M274.3,214.2c0.1,0,0.2,0,0.4,0l1-0.1c1.5-0.2,2.6-1.6,2.4-3.1c-0.2-1.5-1.6-2.6-3.1-2.4l-1.1,0.1
				c-1.5,0.2-2.6,1.6-2.4,3.1C271.8,213.2,273,214.2,274.3,214.2z"/>
			<path class="st3" d="M300.7,213.4l1,0.1c0.1,0,0.2,0,0.2,0c1.4,0,2.7-1.1,2.8-2.6c0.1-1.5-1-2.9-2.5-3l-1-0.1
				c-1.6-0.2-3.1,1.1-3.1,2.8C298.1,212.1,299.2,213.3,300.7,213.4z"/>
			<path class="st3" d="M287.6,213.1C287.6,213.1,287.6,213.1,287.6,213.1c0.4,0,0.8,0,1.1,0c1.5,0,2.7-1.3,2.7-2.8
				c0-1.5-1.3-2.7-2.8-2.7c-0.4,0-0.7,0-1.1,0c-1.5,0.1-2.7,1.3-2.7,2.9C284.8,211.9,286.1,213.1,287.6,213.1z"/>
			<path class="st3" d="M360.1,237.8c-1.4-1-3.3-0.8-4.3,0.6c-1,1.3-0.8,3.3,0.6,4.3l0.1,0.1c0.3,0.2,0.6,0.4,0.9,0.5
				c-1,0-1.9,0.4-2.6,1.2c-1.2,1.3-1.2,3.2,0,4.5c0.2,0.2,0.5,0.4,0.8,0.6c-0.7-0.1-1.3,0-1.9,0.3c-1.8,0.7-2.8,2.7-2.1,4.6
				c0.2,0.7,0.6,1.2,1.1,1.6c-0.9,0.2-1.7,0.6-2.4,1.4c-0.8,0.8-1.1,1.9-1.1,2.9c-0.4-1.8-1.9-3.2-3.7-3.3c-0.3,0-0.7,0-1,0
				c-2.2-0.1-4.1,1.8-4.2,4.2c-0.1,1.9,1,3.6,2.6,4.3c-0.3,0-0.5,0.1-0.8,0.1c-2.4,0.3-4,2.5-3.7,4.8c0.2,1.5,1.2,2.7,2.5,3.3
				c-0.3,0.1-0.5,0.1-0.8,0.2c-0.3,0.1-0.5,0.2-0.8,0.3c-2.4,0.8-3.7,3.4-2.9,5.8c0.4,1.1,1.1,1.9,2,2.5c-0.1,0.1-0.3,0.1-0.4,0.2
				c-0.2,0.1-0.5,0.3-0.7,0.4c-1.9,1.1-2.9,3.2-2.5,5.3c-0.8-2-3-3.3-5.2-3c-0.3,0-0.6,0.1-1,0.1c-2.5,0.3-4.3,2.4-4.3,4.8
				c-0.2-2.4-2.1-4.4-4.6-4.5c-0.3,0-0.7,0-1-0.1c-2.7-0.2-5,1.9-5.2,4.6c-0.2,2.7,1.9,5,4.6,5.2c0.4,0,0.8,0,1.2,0.1
				c0.1,0,0.2,0,0.3,0c2.6,0,4.7-2,4.9-4.6c0-0.1,0-0.1,0-0.2c0,0.1,0,0.2,0,0.3c0.3,2.7,2.8,4.6,5.5,4.3c0.4,0,0.8-0.1,1.2-0.2
				c2.7-0.4,4.5-2.9,4.1-5.6c0-0.1,0-0.2,0-0.3c0.1,0.1,0.1,0.3,0.2,0.4c1.3,2.4,4.2,3.3,6.6,2c0.4-0.2,0.8-0.4,1.2-0.7
				c2.3-1.4,3-4.3,1.7-6.5c0.7,0.4,1.4,0.6,2.2,0.6c1,0,2.1-0.4,2.9-1.2c0.3-0.3,0.6-0.6,0.8-0.9c1.1-1.7,0.8-3.8-0.5-5.2
				c0.9-0.1,1.7-0.5,2.3-1.1c0.3-0.3,0.6-0.6,0.8-0.9c1-1.5,0.8-3.5-0.2-4.8c0.4-0.2,0.8-0.4,1.2-0.8c0.3-0.3,0.6-0.6,0.8-0.9
				c1.1-1.7,0.8-4-0.7-5.3c0.7-0.2,1.3-0.5,1.8-1c0.3-0.3,0.5-0.6,0.7-0.9c1.1-1.7,0.7-4-0.9-5.3c0.1,0,0.3-0.1,0.4-0.1
				c0.4-0.1,0.7-0.3,1-0.4c1.7-1.1,2.3-3.4,1.2-5.1c-0.4-0.6-0.9-1-1.4-1.3c0.1,0,0.2,0,0.3,0c0.8,0,1.6-0.3,2.3-0.9
				c0.2-0.2,0.4-0.5,0.6-0.7c1-1.5,0.5-3.5-1-4.5c-0.2-0.2-0.5-0.3-0.7-0.3c0,0,0,0,0.1,0c0.9,0,1.8-0.4,2.4-1.1
				c1.1-1.3,0.9-3.3-0.4-4.3C360.4,238.1,360.3,238,360.1,237.8z M343,282.8c0,0,0.1,0,0.2-0.1c0,0.1,0.1,0.2,0.1,0.2
				C343.2,282.9,343.1,282.8,343,282.8z"/>
			<path class="st3" d="M347.8,237.3c0.3,0.2,0.6,0.3,0.9,0.5c0.5,0.3,1,0.4,1.6,0.4c1,0,2.1-0.5,2.6-1.5c0.9-1.5,0.4-3.4-1-4.2
				c-0.3-0.2-0.7-0.4-1-0.6c-1.5-0.8-3.4-0.3-4.2,1.1C345.8,234.5,346.3,236.4,347.8,237.3z"/>
			<path class="st3" d="M336.5,232.2c0.3,0.1,0.7,0.2,1,0.4c0.3,0.1,0.7,0.2,1.1,0.2c1.2,0,2.4-0.8,2.9-2c0.6-1.6-0.2-3.4-1.8-4
				c-0.3-0.1-0.7-0.3-1-0.4c-1.6-0.6-3.4,0.3-3.9,1.9C334.1,229.9,334.9,231.7,336.5,232.2z"/>
			<path class="st3" d="M235.9,231.3c0.3,0,0.6,0,0.9-0.1l1-0.3c1.6-0.5,2.5-2.2,2-3.9c-0.5-1.6-2.2-2.5-3.9-2l-1,0.3
				c-1.6,0.5-2.5,2.2-2,3.9C233.3,230.5,234.5,231.3,235.9,231.3z"/>
			<path class="st3" d="M324.4,228.7c0.4,0.1,0.7,0.2,1,0.3c0.3,0.1,0.5,0.1,0.7,0.1c1.4,0,2.6-0.9,3-2.3c0.4-1.7-0.6-3.3-2.2-3.7
				c-0.3-0.1-0.7-0.2-1.1-0.3c-1.7-0.4-3.3,0.6-3.7,2.3C321.7,226.6,322.8,228.3,324.4,228.7z"/>
			<path class="st3" d="M248.3,227.9c0.2,0,0.5,0,0.7-0.1l1-0.2c1.7-0.4,2.7-2,2.3-3.7c-0.4-1.7-2-2.7-3.7-2.3l-1.1,0.3
				c-1.7,0.4-2.7,2.1-2.3,3.7C245.7,226.9,246.9,227.9,248.3,227.9z"/>
			<path class="st3" d="M311.9,226.1l1.1,0.2c0.2,0,0.4,0,0.5,0c1.5,0,2.8-1.1,3-2.5c0.3-1.7-0.8-3.3-2.5-3.6l-1.1-0.2
				c-1.7-0.3-3.3,0.8-3.6,2.5C309.1,224.3,310.3,225.9,311.9,226.1z"/>
			<path class="st3" d="M261,225.3c0.2,0,0.3,0,0.5,0l1-0.2c1.7-0.3,2.8-1.8,2.6-3.5c-0.3-1.7-1.8-2.8-3.5-2.6l-1.1,0.2
				c-1.7,0.3-2.8,1.8-2.6,3.5C258.2,224.2,259.5,225.3,261,225.3z"/>
			<path class="st3" d="M299.3,224.4l1.1,0.1c0.1,0,0.2,0,0.4,0c1.5,0,2.9-1.2,3.1-2.7c0.2-1.7-1-3.2-2.7-3.4l-1.1-0.1
				c-1.7-0.2-3.2,1-3.4,2.7C296.4,222.6,297.6,224.2,299.3,224.4z"/>
			<path class="st3" d="M273.8,223.8c0.1,0,0.1,0,0.2,0l1.1-0.1c1.7-0.1,3-1.6,2.9-3.3c-0.1-1.7-1.6-3-3.3-2.9c-0.4,0-0.7,0-1.1,0.1
				c-1.7,0.1-3,1.6-2.8,3.3C270.9,222.6,272.2,223.8,273.8,223.8z"/>
			<path class="st3" d="M286.7,223.5c0.3,0,0.7,0,1.1,0c0,0,0.1,0,0.1,0c1.7,0,3-1.3,3.1-3c0-1.7-1.3-3.1-3-3.2c-0.4,0-0.7,0-1.1,0
				c-1.7,0-3.1,1.3-3.2,3C283.6,222,285,223.4,286.7,223.5z"/>
			<path class="st3" d="M351.8,245.1c0.7-1.7-0.1-3.7-1.8-4.4c-0.3-0.1-0.7-0.3-1.1-0.4c-1.7-0.7-3.7,0.2-4.4,1.9
				c-0.7,1.7,0.1,3.7,1.9,4.4c0.3,0.1,0.6,0.3,0.9,0.4c0.4,0.2,0.9,0.3,1.3,0.3C350,247.2,351.2,246.4,351.8,245.1z"/>
			<path class="st3" d="M340,240.7c0.5-1.8-0.5-3.7-2.3-4.2l-1.1-0.3c-1.8-0.5-3.7,0.6-4.2,2.4c-0.5,1.8,0.6,3.7,2.4,4.2l1,0.3
				c0.3,0.1,0.6,0.1,0.9,0.1C338.2,243.1,339.6,242.2,340,240.7z"/>
			<path class="st3" d="M322.7,239.8l1,0.2c0.2,0.1,0.5,0.1,0.7,0.1c1.5,0,3-1.1,3.3-2.7c0.4-1.8-0.7-3.6-2.6-4l-1.1-0.2
				c-1.8-0.4-3.6,0.8-4,2.6C319.7,237.6,320.9,239.4,322.7,239.8z"/>
			<path class="st3" d="M310.5,237.4l1.1,0.2c0.2,0,0.4,0.1,0.6,0.1c1.6,0,3-1.1,3.3-2.8c0.3-1.8-0.9-3.6-2.7-3.9l-1.1-0.2
				c-1.8-0.3-3.6,0.9-3.9,2.7C307.4,235.3,308.6,237.1,310.5,237.4z"/>
			<path class="st3" d="M248.5,236c0.2,0,0.4,0,0.6,0l1-0.2c1.8-0.3,3.1-2.1,2.8-3.9c-0.3-1.8-2.1-3.1-3.9-2.8l-1.1,0.2
				c-1.8,0.3-3.1,2.1-2.8,3.9C245.5,234.8,246.9,236,248.5,236z"/>
			<path class="st3" d="M298.1,235.4l1.1,0.2c0.2,0,0.3,0,0.5,0c1.6,0,3.1-1.2,3.3-2.9c0.3-1.8-1-3.6-2.8-3.9l-1.1-0.2
				c-1.9-0.3-3.6,1-3.9,2.8C295,233.4,296.3,235.1,298.1,235.4z"/>
			<path class="st3" d="M261,234.3c0.1,0,0.2,0,0.3,0c0.4,0,0.7-0.1,1.1-0.1c1.9-0.2,3.2-1.8,3.1-3.7c-0.2-1.9-1.8-3.2-3.7-3.1
				c-0.4,0-0.7,0.1-1.1,0.1c-1.9,0.2-3.2,1.8-3,3.7C257.8,233,259.3,234.3,261,234.3z"/>
			<path class="st3" d="M285.9,234l1,0.1c0.1,0,0.2,0,0.3,0c1.8,0,3.2-1.3,3.4-3.1c0.2-1.9-1.2-3.5-3.1-3.6c-0.4,0-0.7-0.1-1.1-0.1
				c-1.9-0.1-3.5,1.3-3.6,3.1C282.6,232.2,284,233.8,285.9,234z"/>
			<path class="st3" d="M273.6,233.6C273.6,233.6,273.6,233.6,273.6,233.6l1.1,0c1.9,0,3.4-1.5,3.4-3.4c0-1.9-1.5-3.4-3.4-3.4
				c0,0,0,0,0,0l-1.1,0c-1.9,0-3.4,1.6-3.3,3.4C270.2,232.1,271.7,233.6,273.6,233.6z"/>
			<path class="st3" d="M346.8,248.6c-2-0.4-4,0.8-4.4,2.8c-0.4,2,0.8,4,2.8,4.4l1,0.2c0.3,0.1,0.6,0.1,0.8,0.1
				c1.7,0,3.2-1.2,3.6-2.9c0.5-2-0.8-4-2.8-4.4L346.8,248.6z"/>
			<path class="st3" d="M338.7,250.6c0.4-2-0.9-3.9-2.9-4.3l-1.1-0.2c-2-0.4-3.9,0.9-4.3,2.9c-0.4,2,0.9,3.9,2.9,4.3l1.1,0.2
				c0.2,0,0.5,0.1,0.7,0.1C336.8,253.6,338.3,252.4,338.7,250.6z"/>
			<path class="st3" d="M322.3,251.2c0.2,0,0.5,0.1,0.7,0.1c1.7,0,3.3-1.2,3.6-3c0.4-2-0.9-3.9-2.9-4.3l-1.1-0.2
				c-2-0.4-3.9,0.9-4.3,2.9c-0.4,2,0.9,3.9,2.9,4.3L322.3,251.2z"/>
			<path class="st3" d="M309.2,248.7l1.1,0.2c0.2,0,0.4,0.1,0.7,0.1c1.7,0,3.3-1.2,3.6-3c0.4-2-0.9-3.9-2.9-4.3l-1.1-0.2
				c-2-0.4-3.9,0.9-4.3,2.9C305.9,246.4,307.2,248.3,309.2,248.7z"/>
			<path class="st3" d="M297.2,246.5l1.1,0.2c0.2,0,0.4,0.1,0.7,0.1c1.7,0,3.3-1.2,3.6-3c0.4-2-1-3.9-3-4.3l-1.1-0.2
				c-2-0.4-3.9,1-4.3,3C293.9,244.2,295.2,246.1,297.2,246.5z"/>
			<path class="st3" d="M285.3,244.6l1.1,0.1c0.2,0,0.3,0,0.5,0c1.8,0,3.4-1.4,3.7-3.2c0.3-2-1.2-3.9-3.2-4.1l-1.1-0.1
				c-2-0.2-3.9,1.2-4.1,3.2C281.8,242.5,283.3,244.4,285.3,244.6z"/>
			<path class="st3" d="M249.8,236.9l-1.1,0.1c-2,0.2-3.5,2-3.3,4.1c0.2,1.9,1.8,3.3,3.7,3.3c0.1,0,0.3,0,0.4,0l1.1-0.1
				c2-0.2,3.5-2,3.3-4C253.6,238.2,251.8,236.7,249.8,236.9z"/>
			<path class="st3" d="M273.4,243.6l1.1,0.1c0.1,0,0.1,0,0.2,0c1.9,0,3.6-1.5,3.7-3.5c0.1-2-1.5-3.8-3.5-3.9l-1.1-0.1
				c-2-0.1-3.8,1.5-3.8,3.5C269.8,241.8,271.3,243.5,273.4,243.6z"/>
			<path class="st3" d="M261.3,243.5c0,0,0.1,0,0.1,0c0.4,0,0.7,0,1.1,0c2-0.1,3.7-1.7,3.6-3.8c0-2-1.7-3.7-3.8-3.6
				c-0.4,0-0.7,0-1.1,0c-2,0.1-3.6,1.8-3.6,3.8C257.7,241.9,259.3,243.5,261.3,243.5z"/>
			<path class="st3" d="M334,256.1L333,256c-2.2-0.3-4.2,1.3-4.5,3.5c-0.3,2.2,1.3,4.2,3.5,4.5l1.1,0.1c0.2,0,0.3,0,0.5,0
				c2,0,3.7-1.5,4-3.5C337.8,258.3,336.2,256.4,334,256.1z"/>
			<path class="st3" d="M322.4,254.4l-1.1-0.2c-2.2-0.4-4.2,1.1-4.6,3.3c-0.4,2.2,1.1,4.2,3.3,4.6l1.1,0.2c0.2,0,0.4,0,0.6,0
				c1.9,0,3.6-1.4,3.9-3.3C326,256.8,324.6,254.8,322.4,254.4z"/>
			<path class="st3" d="M310.8,252.4l-1.1-0.2c-2.2-0.4-4.3,1-4.7,3.2c-0.4,2.2,1,4.3,3.2,4.7l1.1,0.2c0.3,0,0.5,0.1,0.8,0.1
				c1.9,0,3.6-1.3,3.9-3.2C314.3,254.9,312.9,252.8,310.8,252.4z"/>
			<path class="st3" d="M296.4,257.6l1.1,0.2c0.3,0.1,0.5,0.1,0.8,0.1c1.9,0,3.5-1.3,3.9-3.2c0.5-2.2-0.9-4.3-3.1-4.7l-1.1-0.2
				c-2.2-0.5-4.3,0.9-4.7,3.1C292.9,255,294.3,257.2,296.4,257.6z"/>
			<path class="st3" d="M284.9,255.4l1,0.2c0.2,0,0.4,0.1,0.7,0.1c1.9,0,3.6-1.4,3.9-3.3c0.4-2.2-1.1-4.2-3.3-4.6l-1.1-0.2
				c-2.2-0.4-4.2,1.1-4.6,3.3C281.3,253,282.8,255,284.9,255.4z"/>
			<path class="st3" d="M273.4,253.8l1.1,0.1c0.1,0,0.3,0,0.4,0c2,0,3.7-1.5,4-3.6c0.2-2.2-1.3-4.2-3.5-4.4l-1.1-0.1
				c-2.2-0.2-4.2,1.4-4.4,3.6C269.6,251.6,271.2,253.6,273.4,253.8z"/>
			<path class="st3" d="M263.1,245.1l-1.1,0c-2.2-0.1-4,1.6-4.1,3.9c-0.1,2.2,1.6,4.1,3.9,4.1l1.1,0c0.1,0,0.1,0,0.2,0
				c2.1,0,3.9-1.7,4-3.8C267,247,265.3,245.2,263.1,245.1z"/>
			<path class="st3" d="M250.9,245c-0.4,0-0.7,0-1.1,0c-2.2,0.1-3.9,1.9-3.8,4.1c0.1,2.2,1.9,3.8,4,3.8c0.1,0,0.1,0,0.1,0
				c0.4,0,0.7,0,1.1,0c2.2-0.1,3.9-1.9,3.9-4.1C255,246.7,253.1,245,250.9,245z"/>
			<path class="st3" d="M332.4,265.9c-0.3,0-0.7,0-1,0c-2.4-0.1-4.4,1.7-4.5,4.1c-0.1,2.4,1.7,4.4,4.1,4.5c0.4,0,0.8,0,1.1,0.1
				c0.1,0,0.1,0,0.2,0c2.3,0,4.2-1.8,4.3-4.1C336.6,268,334.8,266,332.4,265.9z"/>
			<path class="st3" d="M321.3,264.9l-1.1-0.1c-2.3-0.3-4.5,1.3-4.8,3.7c-0.3,2.3,1.3,4.5,3.7,4.8l1.1,0.1c0.2,0,0.4,0,0.6,0
				c2.1,0,4-1.6,4.2-3.7C325.3,267.4,323.6,265.2,321.3,264.9z"/>
			<path class="st3" d="M310.1,263.1l-1.1-0.2c-2.3-0.5-4.6,1.1-5,3.4c-0.5,2.3,1.1,4.6,3.4,5l1.1,0.2c0.3,0,0.5,0.1,0.8,0.1
				c2,0,3.8-1.4,4.2-3.5C314,265.8,312.4,263.6,310.1,263.1z"/>
			<path class="st3" d="M295.9,268.9l1.1,0.3c0.3,0.1,0.6,0.1,1,0.1c2,0,3.7-1.3,4.2-3.3c0.5-2.3-0.9-4.6-3.2-5.1l-1-0.2
				c-2.3-0.5-4.6,0.9-5.2,3.2C292.2,266,293.6,268.3,295.9,268.9z"/>
			<path class="st3" d="M284.8,266.3l1,0.2c0.3,0.1,0.6,0.1,0.9,0.1c2,0,3.8-1.4,4.2-3.4c0.5-2.3-1-4.6-3.3-5.1l-1.1-0.2
				c-2.3-0.5-4.6,1-5.1,3.3C280.9,263.5,282.4,265.8,284.8,266.3z"/>
			<path class="st3" d="M276,256l-1.1-0.2c-2.4-0.4-4.5,1.2-4.9,3.6c-0.4,2.3,1.2,4.5,3.6,4.9l1.1,0.2c0.2,0,0.5,0.1,0.7,0.1
				c2.1,0,3.9-1.5,4.2-3.6C279.9,258.5,278.3,256.3,276,256z"/>
			<path class="st3" d="M264.3,254.4l-1.1-0.1c-2.4-0.2-4.5,1.5-4.7,3.9c-0.2,2.4,1.5,4.5,3.9,4.7l1.1,0.1c0.1,0,0.3,0,0.4,0
				c2.2,0,4-1.7,4.3-3.9C268.4,256.8,266.6,254.7,264.3,254.4z"/>
			<path class="st3" d="M251.4,253.6c-2.3-0.1-4.3,1.8-4.4,4.1c-0.1,2.4,1.8,4.4,4.1,4.4l1.1,0c0.1,0,0.1,0,0.2,0
				c2.3,0,4.2-1.8,4.3-4.1c0.1-2.4-1.7-4.4-4.1-4.5L251.4,253.6z"/>
			<path class="st3" d="M330.1,285c0,0,0.1,0,0.1,0c0.4,0,0.8,0,1.2,0c2.5-0.1,4.5-2.3,4.4-4.8c-0.1-2.5-2.3-4.5-4.8-4.4
				c-0.3,0-0.7,0-1,0c-2.5,0.1-4.5,2.2-4.5,4.7C325.5,283,327.6,285,330.1,285z"/>
			<path class="st3" d="M320.4,275.4c-0.3,0-0.7-0.1-1-0.1c-2.5-0.3-4.8,1.6-5.1,4.1c-0.3,2.5,1.6,4.8,4.1,5.1
				c0.4,0,0.8,0.1,1.1,0.1c0.1,0,0.3,0,0.4,0c2.3,0,4.3-1.8,4.6-4.2C324.8,277.9,322.9,275.7,320.4,275.4z"/>
			<path class="st3" d="M309.6,273.9l-1-0.2c-2.5-0.5-4.9,1.2-5.4,3.7c-0.5,2.5,1.2,4.9,3.7,5.4l1.1,0.2c0.3,0.1,0.6,0.1,0.8,0.1
				c2.2,0,4.1-1.5,4.5-3.8C313.8,276.8,312.1,274.4,309.6,273.9z"/>
			<path class="st3" d="M295.7,280.3l1.1,0.3c0.4,0.1,0.7,0.1,1.1,0.1c2.1,0,4-1.4,4.5-3.5c0.6-2.5-0.9-5-3.4-5.6l-1-0.3
				c-2.5-0.6-5,0.9-5.6,3.4C291.7,277.2,293.2,279.6,295.7,280.3z"/>
			<path class="st3" d="M284.8,277.4l1,0.3c0.4,0.1,0.8,0.1,1.1,0.1c2.1,0,3.9-1.4,4.4-3.5c0.6-2.5-0.9-5-3.3-5.6l-1.1-0.3
				c-2.5-0.6-5,0.9-5.6,3.3C280.8,274.3,282.3,276.8,284.8,277.4z"/>
			<path class="st3" d="M277,266.2l-1.1-0.2c-2.5-0.5-4.9,1.1-5.4,3.6c-0.5,2.5,1.1,4.9,3.6,5.4l1,0.2c0.3,0.1,0.6,0.1,0.9,0.1
				c2.1,0,4-1.5,4.5-3.7C281,269.2,279.4,266.7,277,266.2z"/>
			<path class="st3" d="M265.7,264.1l-1.1-0.2c-2.5-0.4-4.9,1.3-5.2,3.8c-0.4,2.5,1.3,4.9,3.8,5.2l1.1,0.2c0.2,0,0.5,0.1,0.7,0.1
				c2.2,0,4.2-1.6,4.5-3.9C269.9,266.9,268.2,264.5,265.7,264.1z"/>
			<path class="st3" d="M253.2,262.5c-2.5-0.3-4.8,1.5-5,4c-0.3,2.5,1.6,4.7,4.1,4.9l1.1,0.1c0.2,0,0.3,0,0.5,0c2.3,0,4.3-1.7,4.6-4
				c0.3-2.5-1.6-4.7-4.1-4.9L253.2,262.5z"/>
			<path class="st3" d="M309.4,284.7c-0.3-0.1-0.7-0.1-1-0.2c-2.7-0.5-5.2,1.3-5.7,4c-0.5,2.7,1.3,5.2,4,5.7
				c0.4,0.1,0.7,0.1,1.1,0.2c0.3,0,0.6,0.1,0.8,0.1c2.3,0,4.4-1.7,4.8-4.1C313.9,287.7,312.1,285.2,309.4,284.7z"/>
			<path class="st3" d="M299.1,282.5l-1-0.3c-2.6-0.7-5.3,0.9-6,3.5c-0.7,2.6,0.9,5.3,3.5,6l1.1,0.3c0.4,0.1,0.8,0.2,1.2,0.2
				c2.2,0,4.2-1.5,4.7-3.7C303.3,285.8,301.8,283.2,299.1,282.5z"/>
			<path class="st3" d="M288.8,279.6l-1.1-0.3c-2.6-0.7-5.3,0.8-6,3.4c-0.7,2.6,0.8,5.3,3.4,6.1l1,0.3c0.5,0.1,0.9,0.2,1.4,0.2
				c2.1,0,4.1-1.4,4.7-3.5C292.9,283.1,291.4,280.4,288.8,279.6z"/>
			<path class="st3" d="M278.1,276.7l-1.1-0.3c-2.6-0.7-5.3,1-5.9,3.6c-0.6,2.6,1,5.3,3.6,5.9l1,0.3c0.4,0.1,0.8,0.1,1.2,0.1
				c2.2,0,4.2-1.5,4.7-3.7C282.3,280,280.7,277.4,278.1,276.7z"/>
			<path class="st3" d="M267.3,274.2l-1.1-0.2c-2.7-0.5-5.2,1.2-5.8,3.8c-0.5,2.6,1.2,5.2,3.8,5.8l1,0.2c0.3,0.1,0.7,0.1,1,0.1
				c2.3,0,4.3-1.6,4.8-3.9C271.7,277.4,270,274.8,267.3,274.2z"/>
			<path class="st3" d="M256.4,272.2l-1.1-0.2c-2.7-0.4-5.2,1.4-5.6,4c-0.4,2.7,1.4,5.2,4,5.6l1.1,0.2c0.3,0,0.6,0.1,0.8,0.1
				c2.3,0,4.4-1.7,4.8-4.1C260.9,275.1,259.1,272.6,256.4,272.2z"/>
			<path class="st3" d="M245.4,270.6l-0.8-0.1c1.5-0.7,2.5-2.2,2.6-3.9c0.1-2.5-1.8-4.7-4.4-4.8l-0.4,0c1.5-0.7,2.6-2.2,2.5-4
				c-0.1-2.4-2-4.3-4.4-4.2l0,0c1.6-0.6,2.7-2.3,2.5-4.1c-0.2-2.2-2.2-3.8-4.4-3.6l0,0c1.9-0.4,3.3-2.3,2.9-4.2
				c-0.4-2-2.2-3.5-4.2-3.2l0,0l0.7-0.2c1.8-0.4,2.9-2.3,2.5-4.1c-0.4-1.8-2.3-2.9-4.1-2.5l-1.1,0.3c-1.8,0.5-2.9,2.3-2.5,4.1
				c0.4,1.5,1.8,2.6,3.3,2.6c0.1,0,0.3,0,0.4,0l-0.3,0c-2,0.4-3.4,2.4-3,4.4c0.3,1.8,1.9,3,3.6,3c-1.8,0.6-3,2.3-2.8,4.2
				c0.2,2,1.9,3.5,3.9,3.5c-1.6,0.7-2.7,2.3-2.6,4.1c0.1,2.3,2,4.2,4.3,4.2c-1.5,0.7-2.6,2.2-2.7,3.9c-0.1,2.5,1.9,4.7,4.4,4.8
				l0.3,0c-1.5,0.7-2.5,2.1-2.8,3.8c-0.3,2.7,1.6,5.1,4.3,5.4l1.1,0.1c0.2,0,0.4,0,0.6,0c2.4,0,4.6-1.8,4.9-4.3
				C250,273.3,248.1,270.9,245.4,270.6z"/>
			<path class="st3" d="M234.5,269.5c1-0.9,1.5-2.1,1.5-3.5c0-2.3-1.7-4.1-3.9-4.5c0.9-0.9,1.5-2.1,1.3-3.5
				c-0.2-1.9-1.6-3.4-3.4-3.8c0.9-0.9,1.4-2.2,1.2-3.6c-0.3-1.6-1.5-2.8-2.9-3.2c1-0.9,1.6-2.3,1.2-3.7c-0.3-1.4-1.4-2.3-2.7-2.7
				c1.3-0.8,1.9-2.4,1.4-3.9c-0.4-1.3-1.5-2.1-2.7-2.3l0.1,0c1.6-0.6,2.4-2.4,1.8-4c-0.6-1.6-2.4-2.4-4-1.8l-1,0.4
				c-1.6,0.6-2.4,2.4-1.8,4c0.4,1,1.2,1.7,2.2,1.9c-1.7,0.6-2.7,2.5-2.1,4.2c0.3,1.1,1.2,1.9,2.2,2.2c-1.3,0.8-2,2.4-1.6,4
				c0.3,1.3,1.3,2.2,2.4,2.6c-1.1,0.9-1.7,2.3-1.4,3.8c0.3,1.6,1.4,2.7,2.9,3.1c-1,0.9-1.5,2.2-1.4,3.6c0.2,1.9,1.6,3.4,3.4,3.8
				c-0.9,0.9-1.5,2.1-1.5,3.4c0,2.3,1.7,4.1,3.9,4.5c-0.9,0.8-1.5,2-1.6,3.3c-0.2,2.7,1.9,5,4.6,5.2l1.1,0.1c0.1,0,0.2,0,0.4,0
				c2.5,0,4.7-2,4.9-4.6C239.1,272.1,237.1,269.8,234.5,269.5z"/>
			<path class="st3" d="M213.3,269.2c0.2-0.7,0.3-1.4,0.2-2.2c-0.2-1.8-1.5-3.2-3.2-3.8c0.2-0.7,0.3-1.4,0.1-2.2
				c-0.3-1.4-1.3-2.5-2.6-3c0.2-0.7,0.3-1.6,0-2.4c-0.3-1.1-1.1-1.9-2-2.4c0.3-0.8,0.4-1.8,0.1-2.7c-0.3-0.8-0.9-1.5-1.6-1.9
				c0.5-1,0.6-2.1,0.1-3.2c-0.3-0.6-0.8-1.1-1.3-1.4c0.7-0.9,0.9-2.1,0.4-3.2c-0.3-0.7-0.8-1.1-1.4-1.5c1-0.8,1.4-2.2,0.8-3.4
				c-0.3-0.7-0.9-1.2-1.5-1.4l0.3-0.2c1.2-0.6,1.7-2.1,1-3.4c-0.4-0.8-1.2-1.2-2-1.3c0.1,0,0.3-0.1,0.4-0.2l0.9-0.6
				c1-0.6,1.4-1.9,0.8-3c-0.6-1-1.9-1.4-3-0.8l-0.9,0.5c-1,0.6-1.4,1.9-0.8,3c0.4,0.6,1,1,1.6,1c-0.2,0-0.3,0.1-0.5,0.2l-1,0.5
				c-1.2,0.6-1.7,2.1-1,3.4c0.3,0.5,0.7,0.9,1.2,1.1l-0.4,0.2c-1.4,0.7-2,2.3-1.3,3.7c0.2,0.5,0.6,0.9,1,1.1
				c-1.2,0.8-1.7,2.4-1.1,3.8c0.2,0.5,0.6,1,1,1.3c-0.9,0.9-1.2,2.3-0.7,3.6c0.3,0.6,0.7,1.1,1.2,1.5c-0.6,1-0.9,2.2-0.4,3.3
				c0.3,0.8,0.8,1.4,1.5,1.8c-0.5,0.9-0.6,1.9-0.3,3c0.3,1.1,1.1,1.9,2,2.4c-0.3,0.8-0.4,1.7-0.2,2.5c0.3,1.4,1.3,2.5,2.6,3
				c-0.3,0.7-0.4,1.4-0.3,2.2c0.1,1,0.6,1.8,1.2,2.5c0,0,0,0-0.1,0c-0.6-0.5-1.3-0.9-2.1-1.1c0-0.4,0.1-0.9,0-1.3
				c-0.3-1.7-1.6-3-3.1-3.5c0-0.4,0-0.9-0.1-1.3c-0.3-1.4-1.3-2.5-2.6-3c0.1-0.5,0.1-1.1-0.1-1.6c-0.3-1.1-1.1-2-2-2.5
				c0.2-0.7,0.1-1.4-0.1-2.1c-0.3-0.8-0.8-1.4-1.5-1.9c0.3-0.8,0.3-1.6,0-2.4c-0.3-0.6-0.7-1.1-1.2-1.5c0.4-0.8,0.5-1.8,0.1-2.7
				c-0.2-0.5-0.6-0.9-1-1.2c0.7-0.8,0.9-2,0.4-3c-0.2-0.5-0.6-0.9-1-1.2c1-0.7,1.4-2,0.8-3.2c-0.3-0.6-0.8-1-1.3-1.2l0.5-0.3
				c1.1-0.6,1.4-1.9,0.8-3c-0.6-1.1-1.9-1.4-3-0.8l-0.9,0.5c-1.1,0.6-1.4,1.9-0.8,3c0.2,0.4,0.6,0.7,1,0.9l-0.6,0.3
				c-1.2,0.6-1.7,2.1-1.1,3.3c0.2,0.4,0.4,0.6,0.7,0.8c-1.2,0.7-1.7,2.3-1.1,3.6c0.2,0.3,0.4,0.6,0.7,0.9c-0.9,0.9-1.2,2.2-0.7,3.4
				c0.2,0.4,0.5,0.8,0.8,1.1c-0.6,0.9-0.8,2.1-0.3,3.2c0.2,0.5,0.6,1,1,1.3c-0.4,0.9-0.5,1.9-0.1,2.9c0.3,0.7,0.8,1.3,1.4,1.8
				c-0.2,0.7-0.3,1.5,0,2.3c0.3,1.1,1.1,2,2,2.4c-0.1,0.6-0.2,1.3,0,1.9c0.3,1.4,1.3,2.5,2.5,3c-0.1,0.5-0.1,1.1,0,1.6
				c0.1,0.3,0.2,0.6,0.3,0.9c-0.3-0.1-0.6-0.2-0.9-0.2c0,0,0-0.1,0-0.1c-0.4-1.9-1.8-3.2-3.6-3.6c0-0.3,0-0.7-0.1-1
				c-0.4-1.4-1.4-2.5-2.7-3c0-0.3-0.1-0.6-0.1-1c-0.3-1.1-1.1-2-2.1-2.4c0-0.4,0-0.9-0.2-1.3c-0.3-0.9-0.9-1.5-1.6-2
				c0.1-0.6,0.1-1.2-0.1-1.8c-0.2-0.7-0.7-1.2-1.2-1.6c0.2-0.7,0.2-1.4,0-2.1c-0.2-0.5-0.6-0.9-1-1.3c0.4-0.7,0.5-1.7,0.1-2.5
				c-0.2-0.4-0.5-0.8-0.8-1.1c0.7-0.7,0.9-1.8,0.4-2.8c-0.2-0.4-0.5-0.8-0.9-1c1-0.6,1.4-1.8,0.9-2.9c-0.6-1.1-1.9-1.5-2.9-0.9
				l-0.9,0.5c-1.1,0.5-1.5,1.9-1,2.9c0.2,0.3,0.4,0.5,0.6,0.7l0,0c-1.2,0.6-1.8,2.1-1.2,3.3c0.1,0.3,0.3,0.5,0.5,0.7
				c-0.9,0.8-1.2,2.1-0.7,3.2c0.1,0.3,0.3,0.6,0.6,0.8c-0.6,0.8-0.8,1.9-0.4,3c0.2,0.4,0.4,0.8,0.7,1.1c-0.4,0.8-0.5,1.7-0.1,2.6
				c0.2,0.6,0.6,1.1,1.1,1.5c-0.2,0.7-0.2,1.5,0,2.2c0.3,0.8,0.8,1.5,1.5,2c-0.1,0.6-0.1,1.2,0.1,1.8c0.3,1.1,1.1,2,2.1,2.5
				c0,0.4,0,0.9,0.1,1.3c0.2,0.9,0.7,1.6,1.4,2.2c-0.1,0-0.3,0.1-0.4,0.1c-0.7-1-1.7-1.6-2.9-1.9c0,0,0,0,0,0
				c-0.3-1.6-1.6-2.8-3-3.2c0-0.1,0-0.2,0-0.3c-0.3-1.3-1.2-2.3-2.4-2.7c0-0.2,0-0.4-0.1-0.6c-0.3-1-1-1.8-1.8-2.3
				c0-0.3,0-0.7-0.1-1c-0.2-0.8-0.7-1.4-1.3-1.8c0.1-0.5,0-1-0.1-1.5c-0.2-0.6-0.5-1-1-1.4c0.2-0.6,0.2-1.2,0-1.9
				c-0.2-0.4-0.4-0.8-0.7-1c0.4-0.7,0.5-1.5,0.2-2.3c-0.1-0.3-0.4-0.6-0.6-0.9c0.7-0.6,0.9-1.6,0.5-2.5c-0.5-1.1-1.8-1.6-2.9-1.1
				l-1,0.4c-1.1,0.5-1.6,1.8-1.1,2.9c0.1,0.2,0.2,0.3,0.3,0.5c-0.9,0.7-1.3,1.9-0.8,2.9c0.1,0.2,0.2,0.4,0.4,0.6
				c-0.6,0.7-0.8,1.8-0.5,2.7c0.1,0.3,0.3,0.6,0.5,0.8c-0.4,0.7-0.5,1.6-0.2,2.4c0.2,0.5,0.4,0.9,0.8,1.2c-0.2,0.6-0.2,1.3,0,1.9
				c0.2,0.7,0.6,1.3,1.2,1.7c-0.1,0.5,0,1,0.1,1.5c0.3,1,0.9,1.8,1.7,2.2c0,0.3,0,0.7,0.1,1c0.3,1.3,1.2,2.3,2.3,2.7
				c0,0.2,0,0.4,0.1,0.6c0,0.2,0.1,0.4,0.2,0.6c-0.6-0.5-1.4-0.8-2.2-0.8c-0.5-1.5-1.8-2.6-3.3-2.9c-0.4-1.3-1.4-2.3-2.6-2.6
				c-0.3-1.2-1.1-2-2.1-2.5c0-0.1,0-0.2,0-0.2c-0.2-0.9-0.8-1.7-1.6-2.1c0-0.2,0-0.4-0.1-0.7c-0.2-0.7-0.6-1.2-1.1-1.6
				c0-0.4,0-0.8-0.1-1.1c-0.1-0.4-0.4-0.8-0.7-1.1c0.2-0.5,0.2-1.1,0-1.6c-0.1-0.3-0.3-0.6-0.5-0.8c0.4-0.6,0.5-1.3,0.2-2
				c-0.4-1.1-1.7-1.7-2.8-1.2l-1,0.4c-1.1,0.4-1.7,1.7-1.2,2.8c0,0.1,0.1,0.2,0.2,0.3c-0.6,0.7-0.9,1.6-0.5,2.5
				c0.1,0.2,0.2,0.4,0.3,0.5c-0.4,0.6-0.5,1.4-0.3,2.2c0.1,0.4,0.3,0.7,0.6,1c-0.2,0.5-0.2,1.1,0,1.7c0.2,0.6,0.5,1.1,1,1.5
				c0,0.4,0,0.8,0.1,1.2c0.2,0.9,0.7,1.6,1.5,2.1c0,0.2,0,0.5,0.1,0.7c0.2,1.2,1,2.1,2.1,2.6c0,0.1,0,0.2,0,0.3c0.1,0.8,0.5,1.5,1,2
				c-0.2,0-0.4,0-0.5,0c-0.6-1.5-2-2.6-3.6-2.7c-0.5-1.3-1.6-2.2-2.9-2.4c-0.4-1.1-1.3-1.9-2.4-2.2c-0.3-0.9-1-1.6-1.8-2
				c-0.2-0.8-0.7-1.4-1.3-1.8c0-0.1,0-0.1,0-0.2c-0.1-0.6-0.4-1.1-0.8-1.5c0-0.2,0-0.5,0-0.7c-0.1-0.3-0.2-0.7-0.5-0.9
				c0.1-0.4,0.1-0.8,0-1.3c-0.3-1.2-1.5-1.8-2.7-1.5c-0.3,0.1-0.7,0.2-1,0.3c-1.1,0.3-1.8,1.5-1.5,2.7c0,0.1,0.1,0.1,0.1,0.2
				c-0.3,0.5-0.5,1.2-0.3,1.9c0.1,0.3,0.2,0.5,0.3,0.8c-0.1,0.4-0.2,0.9-0.1,1.4c0.1,0.5,0.4,1,0.7,1.4c0,0.3,0,0.5,0,0.8
				c0.1,0.9,0.6,1.6,1.3,2c0,0.1,0,0.1,0,0.2c0.2,1.2,0.9,2.1,1.8,2.6c0.1,0.3,0.2,0.7,0.3,1c-0.3-0.1-0.7-0.2-1.1-0.2
				c0,0-0.1,0-0.1,0c-0.6-1.3-1.8-2.2-3.3-2.3c-0.5-1.1-1.5-1.9-2.7-2.1c-0.4-0.9-1.2-1.6-2.2-1.8c-0.3-0.7-0.9-1.3-1.6-1.6
				c-0.2-0.5-0.6-0.9-1-1.2c-0.1-0.4-0.3-0.7-0.6-1c0,0,0-0.1,0-0.1c-0.1-1.2-1.2-2.1-2.4-1.9c-0.3,0-0.7,0.1-1,0.1
				c-1.2,0.1-2.1,1.2-2,2.4c0,0.2,0.1,0.4,0.1,0.5c-0.1,0.3-0.1,0.5-0.1,0.8c0,0.5,0.2,1,0.5,1.4c0,0,0,0.1,0,0.1
				c0,0.9,0.4,1.7,1.1,2.2c0.1,1,0.8,1.9,1.7,2.3c0.3,1.1,1.1,2,2.2,2.4c0.2,0.8,0.7,1.4,1.2,1.9c-0.1,0.1-0.2,0.1-0.3,0.2
				c-0.7-1-1.8-1.8-3.1-1.9c-0.2,0-0.5,0-0.7-0.1c-0.6-0.8-1.4-1.4-2.4-1.6c-0.4-0.9-1.2-1.6-2.2-1.8c-0.3-0.7-0.9-1.3-1.6-1.6
				c-0.2-0.5-0.6-0.9-1-1.2c-0.1-0.4-0.3-0.7-0.6-1c0,0,0-0.1,0-0.1c-0.1-1.2-1.2-2.1-2.4-1.9c-0.4,0-0.7,0.1-1,0.1
				c-1.2,0.1-2.1,1.2-2,2.4c0,0.2,0.1,0.4,0.1,0.5c-0.1,0.3-0.1,0.5-0.1,0.8c0,0.5,0.2,1,0.5,1.4c0,0,0,0.1,0,0.1
				c0,0.9,0.4,1.7,1.1,2.2c0,0.3,0.1,0.5,0.2,0.8c-0.3-0.1-0.5-0.2-0.8-0.2c-0.4-0.7-1-1.2-1.8-1.4c-0.3-0.5-0.7-0.9-1.1-1.1
				c-0.1-0.4-0.4-0.7-0.7-0.9c0,0,0-0.1,0-0.1c-0.3-1.2-1.4-1.9-2.6-1.6c-0.3,0.1-0.7,0.1-1,0.2c-1.2,0.2-1.9,1.4-1.7,2.6
				c0,0.2,0.1,0.4,0.2,0.5c0,0.3-0.1,0.5,0,0.8c0.1,0.5,0.3,1,0.7,1.3c0,0,0,0.1,0,0.1c0.1,0.9,0.6,1.6,1.3,2.1c0.2,1,1,1.8,1.9,2.1
				c0.4,1.1,1.3,1.9,2.4,2.2c0.6,1.5,2,2.4,3.7,2.3c0,0,0,0,0,0c0.7,1.1,1.9,1.9,3.3,1.9c0.4,0,0.8,0,1.2,0c0.3,0,0.7-0.1,1-0.1
				c0.6-0.2,1.1-0.4,1.5-0.8c0.5,1.3,1.6,2.3,3,2.8c0.4,0.1,0.8,0.2,1.2,0.4c1.9,0.6,3.9-0.1,5.1-1.5c0.4,0.1,0.7,0.1,1.1,0.2
				c0,0,0.1,0,0.1,0c0.5,1.8,2.1,3.3,4.1,3.5c0.4,0.1,0.8,0.1,1.1,0.1c0.2,0,0.4,0,0.6,0c1.9,0,3.6-1.2,4.4-2.9c0.1,0,0.2,0,0.4,0
				c0.1,0,0.2,0,0.3,0c0.6,2,2.4,3.4,4.6,3.5c0.4,0,0.7,0,1.1,0c0,0,0.1,0,0.1,0c2.3,0,4.3-1.6,4.8-3.8c0.1,0,0.2,0,0.3,0
				c0.6,2.1,2.5,3.6,4.7,3.6c0.1,0,0.2,0,0.3,0l1.1-0.1c2.5-0.1,4.5-2.2,4.6-4.7c0.1,0,0.1,0,0.2,0c0.6,2.2,2.5,3.8,4.7,3.8
				c0.2,0,0.3,0,0.5,0l1.1-0.1c2.6-0.3,4.5-2.7,4.3-5.5v0c0,0,0,0,0,0.1c0.4,2.4,2.5,4.2,5,4.2c0.2,0,0.5,0,0.7,0l1.1-0.2
				c2.4-0.3,4.1-2.3,4.3-4.5c0.8,1.8,2.7,3.1,4.8,3.1c0.2,0,0.5,0,0.8-0.1l1.1-0.2c2.2-0.3,3.9-1.9,4.3-3.8c0.8,1.6,2.5,2.7,4.4,2.7
				c0.2,0,0.3,0,0.5,0l1.1-0.1c2.7-0.3,4.6-2.6,4.4-5.3c0,0,0,0,0,0c0.1,2.6,2.3,4.6,4.9,4.6c0.1,0,0.1,0,0.2,0l1.1,0
				c2.7-0.1,4.8-2.4,4.7-5.1C217,271.5,215.4,269.7,213.3,269.2z"/>
			<path class="st3" d="M224,269.1c0.5-0.8,0.8-1.8,0.8-2.9c-0.1-2-1.6-3.6-3.4-4.1c0.5-0.8,0.7-1.8,0.6-2.9
				c-0.3-1.6-1.4-2.9-2.8-3.4c0.5-0.9,0.7-1.9,0.5-3c-0.3-1.3-1.2-2.3-2.4-2.8c0.6-0.9,0.9-2.1,0.5-3.2c-0.3-1.1-1.1-1.8-2-2.3
				c0.8-0.9,1.1-2.2,0.7-3.4c-0.3-0.9-1-1.6-1.8-1.9c1.1-0.8,1.5-2.3,0.9-3.6c-0.4-0.9-1.1-1.5-1.9-1.7l0.1-0.1
				c1.4-0.7,2-2.3,1.3-3.7c-0.5-1-1.4-1.5-2.4-1.6c0.1,0,0.2-0.1,0.3-0.1l0.9-0.5c1.2-0.6,1.7-2.1,1-3.4c-0.6-1.2-2.1-1.7-3.4-1
				l-0.9,0.5c-1.2,0.6-1.7,2.1-1,3.4c0.4,0.8,1.2,1.2,2,1.3c-0.1,0-0.2,0.1-0.3,0.1l-1,0.5c-1.4,0.7-2,2.3-1.3,3.7
				c0.3,0.7,0.9,1.1,1.5,1.4l-0.1,0c-1.6,0.7-2.3,2.5-1.6,4.1c0.3,0.7,0.8,1.2,1.4,1.5c-1.2,0.9-1.7,2.5-1.2,3.9
				c0.3,0.8,0.8,1.4,1.5,1.8c-0.9,0.9-1.3,2.3-0.9,3.7c0.3,1,1,1.7,1.8,2.2c-0.7,0.9-1,2.1-0.7,3.4c0.3,1.3,1.2,2.2,2.3,2.7
				c-0.6,0.9-0.9,1.9-0.7,3.1c0.3,1.6,1.4,2.9,2.9,3.4c-0.5,0.8-0.8,1.8-0.7,2.8c0.2,2,1.6,3.6,3.5,4.1c-0.5,0.8-0.9,1.7-0.9,2.7
				c0,2.7,2.1,4.9,4.8,5l1.1,0c0,0,0.1,0,0.1,0c2.7,0,4.8-2.1,4.9-4.8C228.1,271.5,226.3,269.5,224,269.1z"/>
		</g>
	</g>
</g>
</svg>
